<?xml version="1.0" encoding="UTF-8" standalone="no"?>
<!-- Created with Inkscape (http://www.inkscape.org/) -->

<svg
   xmlns:dc="http://purl.org/dc/elements/1.1/"
   xmlns:cc="http://creativecommons.org/ns#"
   xmlns:rdf="http://www.w3.org/1999/02/22-rdf-syntax-ns#"
   xmlns:svg="http://www.w3.org/2000/svg"
   xmlns="http://www.w3.org/2000/svg"
   xmlns:sodipodi="http://sodipodi.sourceforge.net/DTD/sodipodi-0.dtd"
   xmlns:inkscape="http://www.inkscape.org/namespaces/inkscape"
   width="2706.8167"
   height="140.59576"
   id="svg3149"
   version="1.1"
   inkscape:version="0.48.5 r10040"
   inkscape:export-filename="C:\Users\Jannina\Dropbox\DieHundebarf\Newsletter\hintergrundbild.png"
   inkscape:export-xdpi="33.512985"
   inkscape:export-ydpi="33.512985"
   sodipodi:docname="hintergrund_unten.svg">
  <defs
     id="defs3151" />
  <sodipodi:namedview
     id="base"
     pagecolor="#ffffff"
     bordercolor="#666666"
     borderopacity="1.0"
     inkscape:pageopacity="0.0"
     inkscape:pageshadow="2"
     inkscape:zoom="0.24748737"
     inkscape:cx="1222.8501"
     inkscape:cy="-47.98507"
     inkscape:document-units="px"
     inkscape:current-layer="g4173"
     showgrid="false"
     fit-margin-top="0"
     fit-margin-left="0"
     fit-margin-right="0"
     fit-margin-bottom="0"
     inkscape:window-width="1366"
     inkscape:window-height="716"
     inkscape:window-x="-8"
     inkscape:window-y="-8"
     inkscape:window-maximized="1" />
  <metadata
     id="metadata3154">
    <rdf:RDF>
      <cc:Work
         rdf:about="">
        <dc:format>image/svg+xml</dc:format>
        <dc:type
           rdf:resource="http://purl.org/dc/dcmitype/StillImage" />
        <dc:title></dc:title>
      </cc:Work>
    </rdf:RDF>
  </metadata>
  <g
     inkscape:label="Ebene 1"
     inkscape:groupmode="layer"
     id="layer1"
     transform="translate(880.25279,-485.5145)">
    <g
       id="g4173">
      <path
         inkscape:export-ydpi="19.997541"
         inkscape:export-xdpi="19.997541"
         inkscape:export-filename="C:\Users\Nina\Desktop\Arbeit\Renate Homepage\B.A.R.F\bilder\icon2.png"
         sodipodi:nodetypes="csssccssccsssccccccsssscsssssssssccssssssscs"
         inkscape:connector-curvature="0"
         id="path3000-7"
         d="m -555.81467,561.46929 c -0.4969,-1.29004 -0.6391,-3.28338 -0.019,-4.89404 1.0792,-2.8047 6.1525,-1.36055 0.8426,-4.24209 -4.9378,-2.67957 -5.7245,-5.07688 -3.9738,-9.53534 1.0162,-2.58801 7.2389,-4.71456 12.0443,-4.11602 1.3852,1.11045 3.7884,2.50729 5.8381,4.31646 0.6181,-0.71732 -0.9573,1.09939 11.1794,-2.33988 5.3884,-1.52694 6.3167,-2.17411 6.8691,-4.78847 0.6914,-3.2731 2.4718,-6.0441 4.7102,-7.33126 4.4112,-2.13006 11.5534,-0.2184 13.5084,4.39133 0.4968,1.29005 0.5043,3.23776 0.019,4.89403 -0.7692,2.62738 -3.8397,2.44044 -0.8426,4.24212 4.815,2.8944 5.7245,5.07688 3.9738,9.53534 -1.0163,2.588 -7.239,4.71456 -12.0442,4.11598 -3.8031,-2.1936 -4.6487,-3.87091 -5.5138,-4.51859 -1.6783,0.70451 -4.6503,1.71438 -7.4701,2.51895 -7.3139,2.79863 -10.8678,1.79044 -11.0606,4.65896 -0.4381,3.51691 -1.9171,5.94584 -4.5512,7.47418 -6.542,2.52776 -11.5547,0.22794 -13.5096,-4.38168 z m 11.5358,2.52988 c 2.9937,-1.34991 4.6828,-3.77714 5.1307,-7.37314 0.351,-2.8181 -4.383,-0.46394 5.2086,-2.9835 11.2992,-2.96812 13.2123,-3.5764 13.8875,-4.41571 0.3666,-0.45566 1.9188,0.26536 3.9913,1.854 3.9275,3.01066 4.6436,3.25856 9.4383,1.69014 2.7623,-0.90363 3.2051,-1.38839 3.6077,-3.94967 0.4108,-2.61339 0.176,-3.0998 -2.2392,-4.63759 -1.484,-0.94484 -4.3034,-1.94922 -6.2652,-2.23193 -3.5914,-0.51744 -2.1737,-1.70472 0.6356,-1.89136 2.0352,-0.1352 3.6259,-1.46862 4.528,-3.79576 1.4882,-3.83902 -4.5955,-7.93474 -9.2412,-6.22136 -3.4716,1.28036 -4.3855,2.45692 -6.0084,7.7354 -0.9384,3.05228 -1.7198,4.49522 -2.1412,3.95391 -0.4214,-0.54128 -1.7941,-0.45394 -3.7617,0.23937 -5.9988,2.34791 -9.4684,1.20867 -12.5941,2.812 -1.0114,0.95016 -1.5487,0.77206 -4.5038,-1.49314 -3.8902,-2.98198 -4.6228,-3.22591 -9.4023,-1.66244 -2.7623,0.90362 -3.205,1.38836 -3.6077,3.94962 -0.4108,2.61339 -0.1759,3.0998 2.2392,4.63759 1.484,0.94485 4.3034,1.94925 6.2653,2.23193 3.5912,0.51748 2.1737,1.70472 -0.6356,1.89135 -3.7792,0.25107 -6.1393,4.87031 -3.8044,7.4459 1.3671,1.508 3.6867,2.85342 5.6908,3.30066 0.4315,0.0963 2.0432,-0.39252 3.5818,-1.08625 z"
         style="fill:#befff1;fill-opacity:1;stroke:#befff1;stroke-opacity:1" />
      <path
         inkscape:export-ydpi="19.997541"
         inkscape:export-xdpi="19.997541"
         inkscape:export-filename="C:\Users\Nina\Desktop\Arbeit\Renate Homepage\B.A.R.F\bilder\icon2.png"
         sodipodi:nodetypes="csssccssccsssccccccsssscsssssssssccssssssscs"
         inkscape:connector-curvature="0"
         id="path3000-7-1"
         d="m -642.44087,549.86999 c 0.4544,-1.02348 1.5145,-2.24674 2.7919,-2.81431 2.2247,-0.98829 4.3033,2.74462 2.9123,-1.94708 -1.2934,-4.36289 -0.3708,-6.18662 3.1856,-7.73746 2.0643,-0.90029 6.8463,1.4458 9.2558,4.54093 0.1571,1.42944 0.7338,3.60592 0.8716,5.81612 0.7649,-0.0568 -1.178,0.0814 7.7431,5.06291 3.9609,2.21165 4.8633,2.37271 6.677,1.19166 2.2707,-1.47868 4.8775,-2.0461 6.8968,-1.50124 3.7466,1.30656 6.7425,6.4922 5.2219,10.2522 -0.4543,1.02343 -1.5656,2.14333 -2.7918,2.8143 -1.9455,1.06429 -3.5971,-0.80148 -2.9123,1.94709 1.1,4.41564 0.3708,6.18656 -3.1855,7.73746 -2.0644,0.90028 -6.8464,-1.44582 -9.2559,-4.54096 -0.9203,-3.43494 -0.4454,-4.87966 -0.5694,-5.74606 -1.3648,-0.5578 -3.6454,-1.68169 -5.7213,-2.83586 -5.792,-2.58607 -7.2502,-5.19912 -9.0035,-3.66658 -2.2653,1.7635 -4.5036,2.30754 -6.8876,1.67413 -5.1948,-2.2991 -6.7486,-6.48744 -5.2283,-10.24729 z m 5.1583,8.05621 c 2.4879,0.94147 4.8454,0.51872 7.1617,-1.28438 1.8151,-1.41307 -2.2446,-2.77612 4.6921,1.27446 8.1716,4.77173 9.6158,5.51903 10.4834,5.42503 0.4708,-0.051 0.9469,1.251 1.2241,3.34789 0.525,3.97391 0.7932,4.52599 4.4376,6.37395 2.0999,1.0645 2.6311,1.04052 4.3286,-0.19584 1.7322,-1.26162 1.8761,-1.67468 1.3736,-3.93873 -0.309,-1.3911 -1.3482,-3.58123 -2.3099,-4.86685 -1.7607,-2.35334 -0.2684,-2.2214 1.4472,-0.71922 1.2432,1.08825 2.918,1.23554 4.7676,0.41952 3.0512,-1.3464 1.9121,-7.17681 -1.7296,-8.85624 -2.7217,-1.2551 -3.9192,-1.1046 -7.8718,0.98916 -2.2858,1.21074 -3.5598,1.58962 -3.491,1.03828 0.068,-0.55152 -0.7678,-1.28764 -2.2917,-2.01747 -4.7807,-2.09105 -6.1155,-4.73089 -8.8239,-5.60275 -1.1236,-0.0351 -1.3294,-0.44487 -1.7244,-3.43482 -0.5203,-3.93607 -0.8001,-4.49537 -4.4331,-6.3374 -2.0997,-1.06455 -2.631,-1.04054 -4.3286,0.19589 -1.7319,1.26154 -1.8761,1.67466 -1.3736,3.93873 0.3089,1.39108 1.3481,3.5812 2.3099,4.86686 1.7606,2.35328 0.2682,2.22136 -1.4473,0.71921 -2.3082,-2.02078 -6.3057,-0.7268 -6.4435,2.0857 -0.081,1.64673 0.4772,3.74596 1.3691,5.14988 0.1921,0.30218 1.3951,0.94542 2.6736,1.42929 z"
         style="fill:#befff1;fill-opacity:1;stroke:#befff1;stroke-opacity:1" />
      <path
         inkscape:export-ydpi="19.997541"
         inkscape:export-xdpi="19.997541"
         inkscape:export-filename="C:\Users\Nina\Desktop\Arbeit\Renate Homepage\B.A.R.F\bilder\icon2.png"
         sodipodi:nodetypes="csssccssccsssccccccsssscsssssssssccssssssscs"
         inkscape:connector-curvature="0"
         id="path3000-7-4"
         d="m -816.77603,580.14223 c -0.49664,-1.29011 -0.63931,-3.28334 -0.0195,-4.89403 1.07918,-2.80471 6.15253,-1.36057 0.84256,-4.2421 -4.93777,-2.67956 -5.72449,-5.07688 -3.97378,-9.53534 1.01622,-2.58802 7.23887,-4.71456 12.04422,-4.11601 1.38532,1.11044 3.78844,2.50728 5.83819,4.31646 0.61809,-0.71731 -0.95723,1.09938 11.17938,-2.33989 5.38838,-1.52694 6.31671,-2.17411 6.86902,-4.78845 0.69144,-3.27311 2.4718,-6.04412 4.71025,-7.33128 4.41117,-2.13005 11.55338,-0.2184 13.50848,4.39132 0.4966,1.29012 0.5044,3.23774 0.019,4.89404 -0.7692,2.6274 -3.8398,2.44044 -0.8427,4.24212 4.8151,2.89443 5.7246,5.07688 3.9739,9.53535 -1.0163,2.58799 -7.2389,4.71454 -12.04427,4.11599 -3.80304,-2.19363 -4.64866,-3.87094 -5.51369,-4.51862 -1.67839,0.70454 -4.65034,1.71438 -7.4701,2.51896 -7.31391,2.79864 -10.86786,1.79045 -11.06066,4.65897 -0.43806,3.51692 -1.91709,5.94584 -4.55119,7.47419 -6.54193,2.52774 -11.55469,0.22795 -13.50961,-4.38168 z m 11.53575,2.52989 c 2.9938,-1.34991 4.68281,-3.77713 5.13073,-7.37313 0.35103,-2.81812 -4.38296,-0.46397 5.20872,-2.98354 11.2992,-2.9681 13.21219,-3.57637 13.88743,-4.41567 0.3666,-0.45568 1.91876,0.26534 3.99125,1.85398 3.92753,3.01065 4.64364,3.25855 9.43834,1.69013 2.7623,-0.90362 3.2051,-1.38838 3.6077,-3.94966 0.4108,-2.61338 0.1759,-3.09979 -2.2392,-4.63756 -1.4839,-0.94488 -4.3034,-1.94926 -6.26531,-2.23195 -3.59128,-0.51745 -2.17368,-1.70472 0.63561,-1.89136 2.0353,-0.13521 3.6259,-1.46862 4.5281,-3.79577 1.4882,-3.83901 -4.5955,-7.93473 -9.24119,-6.22136 -3.47164,1.28035 -4.38549,2.45692 -6.00836,7.7354 -0.93841,3.05228 -1.71981,4.49521 -2.14121,3.95392 -0.4214,-0.5413 -1.7942,-0.45393 -3.7618,0.23939 -5.9987,2.34787 -9.46844,1.20865 -12.59408,2.81198 -1.01147,0.95015 -1.5487,0.77206 -4.50376,-1.49316 -3.89015,-2.98197 -4.62282,-3.22589 -9.40228,-1.66243 -2.76232,0.90361 -3.20511,1.38837 -3.60771,3.94963 -0.41075,2.61339 -0.17593,3.0998 2.23921,4.63757 1.48398,0.94487 4.30335,1.94926 6.26528,2.23196 3.59128,0.51744 2.17367,1.70471 -0.63562,1.89134 -3.77915,0.25105 -6.13926,4.87029 -3.80438,7.44592 1.36706,1.50798 3.68675,2.8534 5.69086,3.30064 0.43141,0.0963 2.04317,-0.39251 3.58168,-1.08625 z"
         style="fill:#befff1;fill-opacity:1;stroke:#befff1;stroke-opacity:1" />
      <path
         inkscape:export-ydpi="19.997541"
         inkscape:export-xdpi="19.997541"
         inkscape:export-filename="C:\Users\Nina\Desktop\Arbeit\Renate Homepage\B.A.R.F\bilder\icon2.png"
         sodipodi:nodetypes="csssccssccsssccccccsssscsssssssssccssssssscs"
         inkscape:connector-curvature="0"
         id="path3000-7-2"
         d="m -455.08866,559.68241 c -0.014,-0.70766 0.2674,-1.69163 0.8476,-2.35804 1.0104,-1.16043 3.1984,0.4228 1.1483,-1.89343 -1.9065,-2.15387 -1.8652,-3.44504 -0.2422,-5.28353 0.9422,-1.0672 4.3084,-1.00064 6.5156,0.12881 0.472,0.77685 1.3836,1.86972 2.053,3.09909 0.423,-0.23687 -0.653,0.36131 5.7884,0.8319 2.85981,0.20893 3.41981,0.0602 4.14331,-1.10096 0.9059,-1.45369 2.2477,-2.47512 3.5501,-2.70243 2.4953,-0.25235 5.5968,1.91811 5.7302,4.4783 0.014,0.70767 -0.3243,1.64608 -0.8477,2.35805 -0.8301,1.1294 -2.2747,0.50176 -1.1481,1.89343 1.8096,2.23575 1.8651,3.44504 0.242,5.28353 -0.9421,1.0672 -4.3083,1.00065 -6.5155,-0.1288 -1.4456,-1.72138 -1.5587,-2.67644 -1.8615,-3.13955 -0.9309,0.045 -2.53761,0.0105 -4.03511,-0.0962 -4.009,0.0658 -5.5423,-1.04169 -6.1374,0.30466 -0.8266,1.61536 -1.9636,2.52497 -3.4985,2.79902 -3.5902,0.0706 -5.5992,-1.91372 -5.7325,-4.47386 z m 5.1071,3.23728 c 1.6768,-0.12521 2.9144,-0.99724 3.7596,-2.64892 0.6625,-1.2944 -2.0274,-0.99075 3.0286,-0.52333 5.95601,0.55063 6.98291,0.59297 7.45471,0.30741 0.2562,-0.15504 0.8768,0.46366 1.5957,1.59092 1.3624,2.13625 1.6635,2.38092 4.245,2.46594 1.4873,0.049 1.7852,-0.10671 2.4274,-1.2685 0.6552,-1.18544 0.6275,-1.46057 -0.2652,-2.62336 -0.5485,-0.71446 -1.7292,-1.69141 -2.6236,-2.17098 -1.6372,-0.87784 -0.7472,-1.20082 0.6371,-0.79866 1.0028,0.29134 2.0017,-0.0717 2.8432,-1.03332 1.3883,-1.58642 -0.8215,-4.62232 -3.3567,-4.61149 -1.8945,0.008 -2.5402,0.41411 -4.2453,2.66953 -0.986,1.30419 -1.6147,1.86157 -1.7226,1.52736 -0.108,-0.33423 -0.7837,-0.53259 -1.85181,-0.54358 -3.2973,0.0792 -4.7671,-1.07654 -6.5517,-0.85249 -0.653,0.28002 -0.8803,0.10026 -1.9054,-1.50707 -1.3494,-2.11591 -1.6593,-2.36157 -4.2325,-2.4463 -1.4873,-0.049 -1.7852,0.10672 -2.4275,1.2685 -0.6552,1.18542 -0.6274,1.46057 0.2653,2.62336 0.5484,0.71446 1.7291,1.6914 2.6235,2.17098 1.6372,0.87784 0.7473,1.20081 -0.637,0.79866 -1.8622,-0.54099 -3.8066,1.26813 -3.1342,2.91619 0.3936,0.96492 1.274,2.01845 2.16,2.58458 0.1907,0.12185 1.0516,0.16893 1.9134,0.10457 z"
         style="fill:#befff1;fill-opacity:1;stroke:#befff1;stroke-opacity:1" />
      <path
         inkscape:export-ydpi="19.997541"
         inkscape:export-xdpi="19.997541"
         inkscape:export-filename="C:\Users\Nina\Desktop\Arbeit\Renate Homepage\B.A.R.F\bilder\icon2.png"
         sodipodi:nodetypes="csssccssccsssccccccsssscsssssssssccssssssscs"
         inkscape:connector-curvature="0"
         id="path3000-7-95"
         d="m -722.26648,535.36509 c -0.0206,-1.11955 0.42299,-2.67623 1.34093,-3.73051 1.59844,-1.83583 5.05995,0.66888 1.81656,-2.99546 -3.01607,-3.40749 -2.95074,-5.45016 -0.38303,-8.35871 1.49048,-1.68834 6.81599,-1.58305 10.30777,0.20379 0.74679,1.22899 2.18896,2.95796 3.24792,4.90286 0.66919,-0.37475 -1.03317,0.5716 9.15744,1.31608 4.5244,0.33054 5.4102,0.0951 6.5549,-1.74177 1.4331,-2.29977 3.5559,-3.91571 5.6162,-4.27529 3.9477,-0.39924 8.8545,3.03448 9.0655,7.08479 0.021,1.11955 -0.5131,2.60414 -1.341,3.7305 -1.3134,1.78676 -3.5987,0.79381 -1.8166,2.99547 2.8632,3.53703 2.9508,5.45017 0.3831,8.35872 -1.4905,1.68833 -6.816,1.58305 -10.3078,-0.20379 -2.2869,-2.72325 -2.4659,-4.23421 -2.9449,-4.96684 -1.4727,0.0713 -4.0146,0.0166 -6.3837,-0.15218 -6.34232,0.10397 -8.76813,-1.64799 -9.70955,0.48198 -1.30774,2.55555 -3.10641,3.99458 -5.53477,4.42814 -5.67967,0.11164 -8.85801,-3.02757 -9.06896,-7.07778 z m 8.07958,5.12146 c 2.65271,-0.1981 4.61074,-1.57767 5.94789,-4.19067 1.0479,-2.04777 -3.20756,-1.56739 4.79117,-0.82792 9.42265,0.87112 11.04725,0.9381 11.79375,0.48632 0.4053,-0.24527 1.387,0.73354 2.5243,2.51688 2.1554,3.37964 2.6317,3.7667 6.7158,3.90121 2.3529,0.0774 2.8241,-0.16883 3.8401,-2.00681 1.0368,-1.87539 0.9928,-2.31068 -0.4196,-4.15024 -0.8677,-1.1303 -2.7354,-2.67587 -4.1504,-3.43456 -2.5902,-1.38876 -1.1823,-1.89973 1.0077,-1.26351 1.5867,0.46092 3.1667,-0.11334 4.4981,-1.63473 2.1964,-2.50977 -1.2996,-7.31264 -5.3103,-7.29552 -2.9971,0.0127 -4.0187,0.65513 -6.7163,4.22327 -1.5599,2.06327 -2.5544,2.94508 -2.7252,2.41633 -0.1708,-0.52875 -1.2399,-0.84256 -2.9296,-0.85995 -5.2164,0.12524 -7.5417,-1.70313 -10.36498,-1.34867 -1.03311,0.44301 -1.39268,0.15861 -3.01439,-2.38422 -2.13486,-3.34744 -2.62497,-3.73608 -6.69599,-3.87013 -2.35287,-0.0775 -2.82419,0.16883 -3.84021,2.00679 -1.03665,1.87539 -0.99265,2.31068 0.41961,4.15024 0.86777,1.1303 2.73549,2.67586 4.1505,3.43456 2.59014,1.38877 1.1822,1.89974 -1.00778,1.2635 -2.94606,-0.85586 -6.02216,2.00624 -4.9585,4.61353 0.62276,1.52652 2.01568,3.19323 3.4172,4.08887 0.3017,0.19278 1.66391,0.26725 3.02712,0.16544 z"
         style="fill:#befff1;fill-opacity:1;stroke:#befff1;stroke-opacity:1" />
      <path
         inkscape:export-ydpi="19.997541"
         inkscape:export-xdpi="19.997541"
         inkscape:export-filename="C:\Users\Nina\Desktop\Arbeit\Renate Homepage\B.A.R.F\bilder\icon2.png"
         sodipodi:nodetypes="csssccssccsssccccccsssscsssssssssccssssssscs"
         inkscape:connector-curvature="0"
         id="path3000-7-113"
         d="m -865.72324,548.66021 c -0.13565,-0.69467 -0.0304,-1.71236 0.42525,-2.46941 0.79352,-1.31824 3.22322,-0.13902 0.802,-2.06405 -2.2515,-1.7901 -2.43504,-3.06882 -1.1559,-5.16122 0.7425,-1.21459 4.06917,-1.73359 6.43891,-1.00456 0.59977,0.68308 1.68729,1.60105 2.55996,2.69551 0.37543,-0.30672 -0.58039,0.46922 5.84493,-0.18588 2.8527,-0.29086 3.37832,-0.5346 3.88923,-1.80373 0.63964,-1.5889 1.78371,-2.82782 3.02683,-3.27782 2.41359,-0.68183 5.84491,0.91708 6.4208,3.41521 0.13565,0.69467 -0.0335,1.67739 -0.42525,2.46943 -0.62144,1.25639 -2.15304,0.88913 -0.80202,2.06404 2.1705,1.88752 2.43506,3.06882 1.15592,5.16123 -0.7425,1.21458 -4.06916,1.73358 -6.43891,1.00456 -1.72253,-1.44421 -1.99979,-2.36511 -2.37838,-2.76861 -0.90892,0.206 -2.49722,0.45097 -3.99053,0.60596 -3.93665,0.76091 -5.639,-0.0634 -5.99125,1.36578 -0.53355,1.73436 -1.49527,2.82758 -2.95932,3.36401 -3.52332,0.69291 -5.84638,-0.91237 -6.42226,-3.41045 z m 5.59165,2.30125 c 1.62955,-0.41448 2.697,-1.48817 3.24255,-3.26153 0.42755,-1.38976 -2.16874,-0.62363 2.89161,-1.04128 5.96119,-0.49199 6.97984,-0.6286 7.39492,-0.99177 0.22537,-0.19717 0.9439,0.30438 1.84765,1.28969 1.71267,1.8672 2.05167,2.05588 4.60874,1.69132 1.47316,-0.21004 1.73953,-0.41508 2.17025,-1.67073 0.43945,-1.28122 0.3643,-1.54735 -0.71675,-2.53745 -0.66425,-0.60836 -1.99654,-1.36546 -2.96065,-1.68243 -1.76479,-0.5802 -0.94445,-1.05282 0.48866,-0.89715 1.03822,0.11277 1.95882,-0.41818 2.62059,-1.51133 1.09173,-1.8034 -1.61167,-4.40945 -4.10645,-3.95856 -1.86432,0.33693 -2.42971,0.84892 -3.71728,3.36617 -0.74455,1.45559 -1.26684,2.11367 -1.4312,1.80328 -0.16433,-0.31041 -0.8643,-0.3884 -1.91805,-0.21376 -3.23342,0.65056 -4.88164,-0.23238 -6.60021,0.29816 -0.59449,0.38916 -0.84953,0.25159 -2.13814,-1.15332 -1.69638,-1.84944 -2.04412,-2.03756 -4.59303,-1.67416 -1.47317,0.20996 -1.73952,0.41508 -2.17024,1.67074 -0.43946,1.2812 -0.3643,1.54734 0.71675,2.53745 0.66424,0.60836 1.99653,1.36545 2.96064,1.68243 1.7648,0.58019 0.94445,1.0528 -0.48864,0.89714 -1.92785,-0.2094 -3.52857,1.90988 -2.58026,3.41615 0.55523,0.8819 1.60526,1.76653 2.576,2.17023 0.20897,0.0869 1.06511,-0.0163 1.90254,-0.22928 z"
         style="fill:#befff1;fill-opacity:1;stroke:#befff1;stroke-opacity:1" />
      <path
         inkscape:export-ydpi="19.997541"
         inkscape:export-xdpi="19.997541"
         inkscape:export-filename="C:\Users\Nina\Desktop\Arbeit\Renate Homepage\B.A.R.F\bilder\icon2.png"
         sodipodi:nodetypes="csssccssccsssccccccsssscsssssssssccssssssscs"
         inkscape:connector-curvature="0"
         id="path3000-7-45-1"
         d="m -113.59914,541.49355 c 0.40901,-0.92099 1.3629,-2.02204 2.5126,-2.53283 2.00221,-0.88946 3.87291,2.47017 2.6211,-1.75239 -1.164,-3.92661 -0.33379,-5.56792 2.86691,-6.96371 1.8579,-0.81022 6.161795,1.30124 8.330295,4.08686 0.1417,1.2865 0.6604,3.24532 0.7844,5.23452 0.6884,-0.0511 -1.0601,0.0732 6.9689,4.55658 3.5647,1.9905 4.3769,2.13544 6.0092,1.07249 2.0437,-1.33079 4.3899,-1.84148 6.2072,-1.35108 3.3719,1.17585 6.0682,5.84298 4.6997,9.22697 -0.4091,0.92099 -1.409,1.92902 -2.5127,2.53284 -1.7509,0.95788 -3.2373,-0.72129 -2.6211,1.7524 0.99,3.97409 0.3339,5.56793 -2.8668,6.96371 -1.858,0.81021 -6.1618,-1.30123 -8.3304,-4.08685 -0.8298,-3.09109 -0.4008,-4.39169 -0.5128,-5.17146 -1.2284,-0.50201 -3.2809,-1.51348 -5.1492,-2.55223 -5.2128,-2.32753 -6.525195,-4.67923 -8.103195,-3.29992 -2.0387,1.58707 -4.0532,2.07672 -6.1988,1.50673 -4.6752,-2.06923 -6.0737,-5.83873 -4.7053,-9.22261 z m 4.6423,7.25059 c 2.2391,0.8474 4.36101,0.46686 6.4455,-1.15591 1.6336,-1.27175 -2.0201,-2.4985 4.223005,1.14701 7.3545,4.29453 8.6541,4.96708 9.4349,4.88251 0.4239,-0.0459 0.8523,1.12586 1.1017,3.01311 0.4727,3.5765 0.7139,4.07339 3.994,5.7365 1.8898,0.9581 2.3679,0.9365 3.8957,-0.17625 1.5589,-1.13542 1.6886,-1.50721 1.2363,-3.54485 -0.2779,-1.25202 -1.2135,-3.22312 -2.0791,-4.38016 -1.5845,-2.11796 -0.2418,-1.99923 1.3026,-0.64732 1.1188,0.97945 2.6261,1.11204 4.2908,0.3778 2.746,-1.21177 1.7213,-6.45906 -1.5567,-7.97062 -2.4495,-1.1296 -3.5271,-0.99412 -7.0846,0.89025 -2.0571,1.08967 -3.2038,1.43065 -3.1419,0.93442 0.062,-0.49623 -0.6909,-1.15887 -2.0626,-1.81573 -4.3025,-1.88191 -5.5038,-4.25776 -7.9415,-5.0425 -1.0112,-0.0316 -1.1963,-0.40031 -1.5519,-3.09128 -0.4682,-3.54244 -0.7201,-4.04584 -3.989805,-5.70364 -1.8897,-0.95816 -2.3678,-0.93649 -3.8957,0.17624 -1.5589,1.13542 -1.6885,1.5072 -1.2362,3.54485 0.2779,1.25202 1.2134,3.22311 2.0791,4.38015 1.5845,2.11797 0.2417,1.99924 -1.3026,0.64731 -2.0775,-1.81866 -5.6752,-0.65411 -5.7993,1.87716 -0.073,1.48202 0.4296,3.37133 1.2321,4.63494 0.1727,0.27202 1.2555,0.85088 2.4062,1.28635 z"
         style="fill:#befff1;fill-opacity:1;stroke:#befff1;stroke-opacity:1" />
      <path
         inkscape:export-ydpi="19.997541"
         inkscape:export-xdpi="19.997541"
         inkscape:export-filename="C:\Users\Nina\Desktop\Arbeit\Renate Homepage\B.A.R.F\bilder\icon2.png"
         sodipodi:nodetypes="csssccssccsssccccccsssscsssssssssccssssssscs"
         inkscape:connector-curvature="0"
         id="path3000-7-5-3"
         d="m -265.91813,550.05036 c -0.015,-0.81616 0.3084,-1.95098 0.9775,-2.71954 1.1653,-1.33833 3.6888,0.48761 1.3244,-2.18369 -2.1988,-2.48407 -2.1512,-3.97317 -0.2793,-6.0935 1.0865,-1.23081 4.9689,-1.15405 7.5144,0.14855 0.5444,0.89594 1.5957,2.15636 2.3677,3.57419 0.4879,-0.2732 -0.7532,0.4167 6.6758,0.95943 3.2982,0.24096 3.9441,0.0694 4.7786,-1.26976 1.0446,-1.67652 2.5921,-2.85455 4.0942,-3.11669 2.8778,-0.29103 6.4548,2.21214 6.6086,5.16482 0.015,0.81615 -0.374,1.89842 -0.9775,2.71953 -0.9574,1.30255 -2.6235,0.57869 -1.3243,2.18369 2.0872,2.5785 2.1511,3.97318 0.2793,6.09352 -1.0866,1.23079 -4.9689,1.15404 -7.5144,-0.14856 -1.6672,-1.98526 -1.7977,-3.08675 -2.1469,-3.62083 -1.0735,0.052 -2.9266,0.012 -4.6537,-0.11095 -4.6235,0.0758 -6.3919,-1.20137 -7.0782,0.35138 -0.9534,1.86298 -2.2646,2.91204 -4.0349,3.22811 -4.1405,0.0814 -6.4575,-2.2071 -6.6113,-5.1597 z m 5.89,3.73354 c 1.9339,-0.14442 3.3613,-1.15012 4.3361,-3.05501 0.7638,-1.49281 -2.3383,-1.14261 3.4927,-0.60355 6.8691,0.63505 8.0535,0.68388 8.5976,0.35454 0.2955,-0.17881 1.0111,0.53475 1.8403,1.8348 1.5712,2.46376 1.9185,2.74592 4.8958,2.84399 1.7152,0.0565 2.0588,-0.12308 2.7995,-1.46298 0.7557,-1.36715 0.7236,-1.68448 -0.3059,-3.02552 -0.6326,-0.82399 -1.9942,-1.9507 -3.0257,-2.50379 -1.8882,-1.01241 -0.8618,-1.38491 0.7347,-0.9211 1.1566,0.33601 2.3085,-0.0826 3.2791,-1.19172 1.6011,-1.82963 -0.9475,-5.33091 -3.8713,-5.31844 -2.1849,0.009 -2.9296,0.4776 -4.8962,3.07876 -1.1371,1.50413 -1.8621,2.14697 -1.9866,1.76152 -0.1245,-0.38546 -0.9038,-0.61424 -2.1357,-0.62691 -3.8027,0.0913 -5.4979,-1.24157 -7.5561,-0.98317 -0.7531,0.32294 -1.0152,0.11561 -2.1975,-1.7381 -1.5563,-2.44029 -1.9136,-2.7236 -4.8813,-2.82134 -1.7153,-0.0566 -2.0589,0.12309 -2.7996,1.46296 -0.7556,1.36716 -0.7236,1.68448 0.306,3.02552 0.6325,0.824 1.9941,1.95071 3.0256,2.5038 1.8883,1.01241 0.8619,1.38491 -0.7346,0.92109 -2.1477,-0.62392 -4.3902,1.46255 -3.6148,3.36327 0.454,1.11283 1.4694,2.32786 2.4912,2.98078 0.2199,0.14054 1.213,0.19483 2.2067,0.12061 z"
         style="fill:#befff1;fill-opacity:1;stroke:#befff1;stroke-opacity:1" />
      <path
         inkscape:export-ydpi="19.997541"
         inkscape:export-xdpi="19.997541"
         inkscape:export-filename="C:\Users\Nina\Desktop\Arbeit\Renate Homepage\B.A.R.F\bilder\icon2.png"
         sodipodi:nodetypes="csssccssccsssccccccsssscsssssssssccssssssscs"
         inkscape:connector-curvature="0"
         id="path3000-7-23-8"
         d="m -382.66163,550.15375 c -0.2651,-1.35675 -0.059,-3.34447 0.8305,-4.82307 1.5499,-2.5747 6.29539,-0.27152 1.5664,-4.03134 -4.3974,-3.49629 -4.7559,-5.9938 -2.2576,-10.08051 1.4503,-2.37224 7.94759,-3.38592 12.57599,-1.96203 1.1715,1.33413 3.2956,3.12705 5,5.26467 0.7332,-0.59908 -1.1336,0.91645 11.4159,-0.36306 5.5716,-0.56806 6.5982,-1.04419 7.5961,-3.52291 1.2493,-3.10331 3.4838,-5.52307 5.9118,-6.40198 4.714,-1.33169 11.4158,1.79115 12.5406,6.67033 0.2651,1.35676 -0.066,3.27614 -0.8306,4.82307 -1.2137,2.45392 -4.2051,1.73661 -1.5664,4.03136 4.2392,3.68658 4.756,5.9938 2.2576,10.08053 -1.4502,2.37222 -7.9475,3.3859 -12.5759,1.96201 -3.3644,-2.8207 -3.9059,-4.61936 -4.6453,-5.40741 -1.7753,0.40238 -4.8774,0.88081 -7.794,1.18351 -7.6888,1.48607 -11.0137,-0.12393 -11.7017,2.66754 -1.0421,3.38741 -2.9205,5.52261 -5.7799,6.57033 -6.8815,1.35334 -11.41869,-1.78197 -12.54349,-6.66104 z m 10.92119,4.49463 c 3.1827,-0.80954 5.2676,-2.90659 6.3331,-6.37019 0.835,-2.71435 -4.2358,-1.218 5.6477,-2.03372 11.6429,-0.96092 13.6325,-1.22776 14.4432,-1.93706 0.4401,-0.3851 1.8435,0.5945 3.6087,2.51889 3.345,3.64692 4.0071,4.0154 9.0014,3.3034 2.8772,-0.41023 3.3975,-0.81072 4.2388,-3.26318 0.8583,-2.50236 0.7115,-3.02215 -1.4,-4.95595 -1.2972,-1.1882 -3.8994,-2.66691 -5.7824,-3.28599 -3.4469,-1.1332 -1.8447,-2.05627 0.9544,-1.75225 2.0277,0.22026 3.8258,-0.81668 5.1183,-2.95182 2.1323,-3.52226 -3.1478,-8.61218 -8.0204,-7.73155 -3.6412,0.65805 -4.7455,1.65805 -7.2603,6.57455 -1.4542,2.84295 -2.4743,4.12827 -2.7953,3.52202 -0.321,-0.60625 -1.6881,-0.75859 -3.7462,-0.41748 -6.3153,1.27054 -9.5345,-0.45388 -12.8911,0.58233 -1.161,0.76008 -1.6592,0.4914 -4.176,-2.25255 -3.3133,-3.61219 -3.9924,-3.97962 -8.9708,-3.26986 -2.87719,0.41021 -3.39739,0.81071 -4.23869,3.26315 -0.8583,2.50236 -0.7115,3.02216 1.3999,4.95595 1.2974,1.18821 3.89939,2.66692 5.78249,3.286 3.4469,1.1332 1.8446,2.05628 -0.9544,1.75224 -3.76529,-0.409 -6.89169,3.73023 -5.03949,6.67217 1.0844,1.72247 3.13519,3.45026 5.03119,4.23871 0.4081,0.16972 2.0803,-0.0318 3.7159,-0.4478 z"
         style="fill:#befff1;fill-opacity:1;stroke:#befff1;stroke-opacity:1" />
      <path
         inkscape:export-ydpi="19.997541"
         inkscape:export-xdpi="19.997541"
         inkscape:export-filename="C:\Users\Nina\Desktop\Arbeit\Renate Homepage\B.A.R.F\bilder\icon2.png"
         sodipodi:nodetypes="csssccssccsssccccccsssscsssssssssccssssssscs"
         inkscape:connector-curvature="0"
         id="path3000-7-8-3"
         d="m -200.5763,584.89715 c -0.4966,-1.29011 -0.6392,-3.28334 -0.019,-4.89403 1.0792,-2.80472 6.1526,-1.36057 0.8426,-4.24211 -4.9378,-2.67956 -5.7245,-5.07687 -3.9738,-9.53534 1.0163,-2.58801 7.2389,-4.71455 12.0443,-4.116 1.3853,1.11044 3.7884,2.50728 5.8381,4.31646 0.6181,-0.71731 -0.9572,1.09937 11.1794,-2.3399 5.3884,-1.52694 6.3167,-2.1741 6.869,-4.78844 0.6915,-3.27312 2.4719,-6.04412 4.7103,-7.33129 4.4112,-2.13005 11.5534,-0.21839 13.5084,4.39133 0.4966,1.29012 0.5045,3.23773 0.019,4.89404 -0.7691,2.6274 -3.8397,2.44044 -0.8426,4.24211 4.8151,2.89444 5.7246,5.07688 3.9739,9.53536 -1.0163,2.58798 -7.2389,4.71453 -12.0443,4.11598 -3.803,-2.19363 -4.6486,-3.87093 -5.5137,-4.51861 -1.6784,0.70454 -4.6503,1.71438 -7.47,2.51896 -7.314,2.79863 -10.868,1.79045 -11.0608,4.65896 -0.438,3.51693 -1.917,5.94585 -4.5512,7.47419 -6.5419,2.52775 -11.5546,0.22795 -13.5096,-4.38167 z m 11.5358,2.52989 c 2.9938,-1.34992 4.6828,-3.77713 5.1307,-7.37313 0.3511,-2.81812 -4.3829,-0.46397 5.2087,-2.98354 11.2992,-2.96811 13.2123,-3.57637 13.8875,-4.41567 0.3666,-0.45568 1.9188,0.26533 3.9913,1.85397 3.9275,3.01066 4.6436,3.25856 9.4383,1.69013 2.7623,-0.90362 3.2051,-1.38837 3.6077,-3.94965 0.4108,-2.61339 0.1759,-3.0998 -2.2392,-4.63756 -1.484,-0.94488 -4.3034,-1.94927 -6.2653,-2.23196 -3.5913,-0.51744 -2.1737,-1.70471 0.6356,-1.89135 2.0353,-0.13521 3.6259,-1.46862 4.5281,-3.79577 1.4882,-3.83902 -4.5955,-7.93474 -9.2412,-6.22136 -3.4716,1.28035 -4.3855,2.45691 -6.0084,7.7354 -0.9384,3.05228 -1.7198,4.4952 -2.1412,3.95392 -0.4214,-0.54131 -1.7942,-0.45393 -3.7618,0.23938 -5.9986,2.34787 -9.4684,1.20866 -12.5941,2.81199 -1.0114,0.95015 -1.5486,0.77205 -4.5037,-1.49316 -3.8902,-2.98198 -4.6228,-3.22589 -9.4023,-1.66243 -2.7623,0.90361 -3.2051,1.38837 -3.6077,3.94963 -0.4108,2.61339 -0.176,3.0998 2.2392,4.63756 1.484,0.94488 4.3033,1.94927 6.2653,2.23197 3.5913,0.51744 2.1736,1.7047 -0.6357,1.89133 -3.7791,0.25105 -6.1392,4.87029 -3.8043,7.44593 1.3671,1.50797 3.6867,2.8534 5.6908,3.30064 0.4315,0.0963 2.0432,-0.39251 3.5817,-1.08626 z"
         style="fill:#befff1;fill-opacity:1;stroke:#befff1;stroke-opacity:1" />
      <path
         inkscape:export-ydpi="19.997541"
         inkscape:export-xdpi="19.997541"
         inkscape:export-filename="C:\Users\Nina\Desktop\Arbeit\Renate Homepage\B.A.R.F\bilder\icon2.png"
         sodipodi:nodetypes="csssccssccsssccccccsssscsssssssssccssssssscs"
         inkscape:connector-curvature="0"
         id="path3000-7-18"
         d="m 1377.4238,522.49361 c -0.4969,1.29004 -0.6391,3.28338 -0.019,4.89404 1.0792,2.8047 6.1525,1.36055 0.8426,4.24209 -4.9378,2.67957 -5.7245,5.07688 -3.9738,9.53534 1.0162,2.58801 7.2389,4.71456 12.0443,4.11602 1.3852,-1.11045 3.7884,-2.50729 5.8381,-4.31646 0.6181,0.71732 -0.9573,-1.09939 11.1794,2.33988 5.3884,1.52694 6.3167,2.17411 6.8691,4.78847 0.6914,3.2731 2.4718,6.0441 4.7102,7.33126 4.4113,2.13006 11.5535,0.2184 13.5085,-4.39133 0.4968,-1.29005 0.5043,-3.23776 0.019,-4.89403 -0.7692,-2.62738 -3.8397,-2.44044 -0.8426,-4.24212 4.815,-2.8944 5.7245,-5.07688 3.9738,-9.53534 -1.0163,-2.588 -7.239,-4.71456 -12.0442,-4.11598 -3.8031,2.1936 -4.6488,3.87091 -5.5139,4.51859 -1.6783,-0.70451 -4.6503,-1.71438 -7.4701,-2.51895 -7.3139,-2.79863 -10.8678,-1.79044 -11.0606,-4.65896 -0.4381,-3.51691 -1.9171,-5.94584 -4.5512,-7.47418 -6.542,-2.52776 -11.5547,-0.22794 -13.5096,4.38168 z m 11.5358,-2.52988 c 2.9937,1.34991 4.6828,3.77714 5.1307,7.37314 0.351,2.8181 -4.383,0.46394 5.2086,2.9835 11.2992,2.96812 13.2123,3.5764 13.8875,4.41571 0.3666,0.45566 1.9189,-0.26536 3.9914,-1.854 3.9275,-3.01066 4.6436,-3.25856 9.4383,-1.69014 2.7623,0.90363 3.2051,1.38839 3.6077,3.94967 0.4108,2.61339 0.176,3.0998 -2.2392,4.63759 -1.484,0.94484 -4.3034,1.94922 -6.2652,2.23193 -3.5914,0.51744 -2.1737,1.70472 0.6356,1.89136 2.0352,0.1352 3.6259,1.46862 4.528,3.79576 1.4882,3.83902 -4.5955,7.93474 -9.2412,6.22136 -3.4717,-1.28036 -4.3856,-2.45692 -6.0085,-7.7354 -0.9384,-3.05228 -1.7198,-4.49522 -2.1412,-3.95391 -0.4214,0.54128 -1.7941,0.45394 -3.7617,-0.23937 -5.9988,-2.34791 -9.4684,-1.20867 -12.5941,-2.812 -1.0114,-0.95016 -1.5487,-0.77206 -4.5038,1.49314 -3.8902,2.98198 -4.6228,3.22591 -9.4023,1.66244 -2.7623,-0.90362 -3.205,-1.38836 -3.6077,-3.94962 -0.4108,-2.61339 -0.1759,-3.0998 2.2392,-4.63759 1.484,-0.94485 4.3034,-1.94925 6.2653,-2.23193 3.5912,-0.51748 2.1737,-1.70472 -0.6356,-1.89135 -3.7792,-0.25107 -6.1393,-4.87031 -3.8044,-7.4459 1.3671,-1.508 3.6867,-2.85342 5.6908,-3.30066 0.4315,-0.0963 2.0432,0.39252 3.5818,1.08625 z"
         style="fill:#befff1;fill-opacity:1;stroke:#befff1;stroke-opacity:1" />
      <path
         inkscape:export-ydpi="19.997541"
         inkscape:export-xdpi="19.997541"
         inkscape:export-filename="C:\Users\Nina\Desktop\Arbeit\Renate Homepage\B.A.R.F\bilder\icon2.png"
         sodipodi:nodetypes="csssccssccsssccccccsssscsssssssssccssssssscs"
         inkscape:connector-curvature="0"
         id="path3000-7-1-9"
         d="m 1282.5133,553.21402 c 0.4544,1.02348 1.5145,2.24674 2.7919,2.81431 2.2247,0.98829 4.3033,-2.74462 2.9123,1.94708 -1.2934,4.36289 -0.3708,6.18662 3.1856,7.73746 2.0643,0.90029 6.8463,-1.4458 9.2558,-4.54093 0.1571,-1.42944 0.7338,-3.60592 0.8716,-5.81612 0.7649,0.0568 -1.178,-0.0814 7.7431,-5.06291 3.9609,-2.21165 4.8633,-2.37271 6.677,-1.19166 2.2707,1.47868 4.8775,2.0461 6.8968,1.50124 3.7466,-1.30656 6.7425,-6.4922 5.2219,-10.2522 -0.4543,-1.02343 -1.5656,-2.14333 -2.7918,-2.8143 -1.9455,-1.06429 -3.5971,0.80148 -2.9123,-1.94709 1.1,-4.41564 0.3708,-6.18656 -3.1855,-7.73746 -2.0644,-0.90028 -6.8464,1.44582 -9.2559,4.54096 -0.9203,3.43494 -0.4454,4.87966 -0.5694,5.74606 -1.3648,0.5578 -3.6454,1.68169 -5.7213,2.83586 -5.792,2.58607 -7.2502,5.19912 -9.0035,3.66658 -2.2653,-1.7635 -4.5036,-2.30754 -6.8876,-1.67413 -5.1948,2.2991 -6.7486,6.48744 -5.2283,10.24729 z m 5.1583,-8.05621 c 2.4879,-0.94147 4.8454,-0.51872 7.1617,1.28438 1.8151,1.41307 -2.2446,2.77612 4.6921,-1.27446 8.1716,-4.77173 9.6158,-5.51903 10.4834,-5.42503 0.4708,0.051 0.9469,-1.251 1.2241,-3.34789 0.525,-3.97391 0.7932,-4.52599 4.4376,-6.37395 2.0999,-1.0645 2.6311,-1.04052 4.3286,0.19584 1.7322,1.26162 1.8761,1.67468 1.3736,3.93873 -0.309,1.3911 -1.3482,3.58123 -2.3099,4.86685 -1.7607,2.35334 -0.2684,2.2214 1.4472,0.71922 1.2432,-1.08825 2.918,-1.23554 4.7676,-0.41952 3.0512,1.3464 1.9121,7.17681 -1.7296,8.85624 -2.7217,1.2551 -3.9192,1.1046 -7.8718,-0.98916 -2.2858,-1.21074 -3.5598,-1.58962 -3.491,-1.03828 0.068,0.55152 -0.7678,1.28764 -2.2917,2.01747 -4.7807,2.09105 -6.1155,4.73089 -8.8239,5.60275 -1.1236,0.0351 -1.3294,0.44487 -1.7244,3.43482 -0.5203,3.93607 -0.8001,4.49537 -4.4331,6.3374 -2.0997,1.06455 -2.631,1.04054 -4.3286,-0.19589 -1.7319,-1.26154 -1.8761,-1.67466 -1.3736,-3.93873 0.3089,-1.39108 1.3481,-3.5812 2.3099,-4.86686 1.7606,-2.35328 0.2682,-2.22136 -1.4473,-0.71921 -2.3082,2.02078 -6.3057,0.7268 -6.4435,-2.0857 -0.081,-1.64673 0.4772,-3.74596 1.3691,-5.14988 0.1921,-0.30218 1.3951,-0.94542 2.6736,-1.42929 z"
         style="fill:#befff1;fill-opacity:1;stroke:#befff1;stroke-opacity:1" />
      <path
         inkscape:export-ydpi="19.997541"
         inkscape:export-xdpi="19.997541"
         inkscape:export-filename="C:\Users\Nina\Desktop\Arbeit\Renate Homepage\B.A.R.F\bilder\icon2.png"
         sodipodi:nodetypes="csssccssccsssccccccsssscsssssssssccssssssscs"
         inkscape:connector-curvature="0"
         id="path3000-7-4-8"
         d="m 1092.8674,528.65606 c -0.4967,1.29011 -0.6393,3.28334 -0.019,4.89403 1.0791,2.80471 6.1526,1.36057 0.8425,4.2421 -4.9377,2.67956 -5.7244,5.07688 -3.9737,9.53534 1.0162,2.58802 7.2389,4.71456 12.0443,4.11601 1.3853,-1.11044 3.7884,-2.50728 5.8382,-4.31646 0.618,0.71731 -0.9573,-1.09938 11.1793,2.33989 5.3884,1.52694 6.3167,2.17411 6.8691,4.78845 0.6914,3.27311 2.4718,6.04412 4.7102,7.33128 4.4112,2.13005 11.5534,0.2184 13.5085,-4.39132 0.4966,-1.29012 0.5044,-3.23774 0.019,-4.89404 -0.7692,-2.6274 -3.8398,-2.44044 -0.8427,-4.24212 4.8151,-2.89443 5.7246,-5.07688 3.9739,-9.53535 -1.0163,-2.58799 -7.2389,-4.71454 -12.0443,-4.11599 -3.803,2.19363 -4.6486,3.87094 -5.5137,4.51862 -1.6784,-0.70454 -4.6503,-1.71438 -7.4701,-2.51896 -7.3139,-2.79864 -10.8678,-1.79045 -11.0606,-4.65897 -0.4381,-3.51692 -1.9171,-5.94584 -4.5512,-7.47419 -6.542,-2.52774 -11.5548,-0.22795 -13.5097,4.38168 z m 11.5358,-2.52989 c 2.9938,1.34991 4.6828,3.77713 5.1307,7.37313 0.3511,2.81812 -4.3829,0.46397 5.2088,2.98354 11.2992,2.9681 13.2122,3.57637 13.8874,4.41567 0.3666,0.45568 1.9188,-0.26534 3.9912,-1.85398 3.9276,-3.01065 4.6437,-3.25855 9.4384,-1.69013 2.7623,0.90362 3.2051,1.38838 3.6077,3.94966 0.4108,2.61338 0.1759,3.09979 -2.2392,4.63756 -1.4839,0.94488 -4.3034,1.94926 -6.2653,2.23195 -3.5913,0.51745 -2.1737,1.70472 0.6356,1.89136 2.0353,0.13521 3.6259,1.46862 4.5281,3.79577 1.4882,3.83901 -4.5955,7.93473 -9.2412,6.22136 -3.4716,-1.28035 -4.3855,-2.45692 -6.0084,-7.7354 -0.9384,-3.05228 -1.7198,-4.49521 -2.1412,-3.95392 -0.4214,0.5413 -1.7942,0.45393 -3.7618,-0.23939 -5.9987,-2.34787 -9.4684,-1.20865 -12.5941,-2.81198 -1.0114,-0.95015 -1.5487,-0.77206 -4.5037,1.49316 -3.8902,2.98197 -4.6228,3.22589 -9.4024,1.66243 -2.7623,-0.90361 -3.2051,-1.38837 -3.6077,-3.94963 -0.4107,-2.61339 -0.1759,-3.0998 2.2392,-4.63757 1.484,-0.94487 4.3035,-1.94926 6.2654,-2.23196 3.5913,-0.51744 2.1737,-1.70471 -0.6356,-1.89134 -3.7793,-0.25105 -6.1394,-4.87029 -3.8045,-7.44592 1.3671,-1.50798 3.6868,-2.8534 5.6909,-3.30064 0.4315,-0.0963 2.0432,0.39251 3.5817,1.08625 z"
         style="fill:#befff1;fill-opacity:1;stroke:#befff1;stroke-opacity:1" />
      <path
         inkscape:export-ydpi="19.997541"
         inkscape:export-xdpi="19.997541"
         inkscape:export-filename="C:\Users\Nina\Desktop\Arbeit\Renate Homepage\B.A.R.F\bilder\icon2.png"
         sodipodi:nodetypes="csssccssccsssccccccsssscsssssssssccssssssscs"
         inkscape:connector-curvature="0"
         id="path3000-7-14-1"
         d="m 1464.1352,563.22903 c -0.2149,1.09893 -0.048,2.70903 0.6728,3.90669 1.2553,2.0855 5.0992,0.21994 1.2688,3.26539 -3.562,2.832 -3.8524,4.85496 -1.8287,8.16521 1.1747,1.92153 6.4375,2.74258 10.1866,1.58923 0.9488,-1.08064 2.6693,-2.53291 4.0499,-4.26438 0.594,0.48526 -0.9182,-0.74233 9.2469,0.29409 4.513,0.46013 5.3446,0.8458 6.1529,2.85357 1.0119,2.51367 2.8218,4.47368 4.7884,5.18557 3.8184,1.07869 9.2469,-1.45081 10.158,-5.40296 0.2149,-1.09893 -0.053,-2.65367 -0.6727,-3.90667 -0.9833,-1.98769 -3.4063,-1.40667 -1.2689,-3.26541 3.4338,-2.98612 3.8524,-4.85497 1.8287,-8.16522 -1.1747,-1.9215 -6.4375,-2.74258 -10.1866,-1.58923 -2.725,2.28476 -3.1637,3.74166 -3.7625,4.38 -1.438,-0.32592 -3.9508,-0.71342 -6.3133,-0.95865 -6.2278,-1.20371 -8.9211,0.10039 -9.4783,-2.16071 -0.844,-2.74378 -2.3656,-4.47329 -4.6818,-5.32195 -5.5739,-1.0962 -9.2491,1.4434 -10.1602,5.39543 z m 8.8462,-3.64063 c 2.5779,0.65571 4.2668,2.35434 5.1298,5.15983 0.6764,2.19862 -3.431,0.98659 4.5746,1.64732 9.4308,0.77834 11.0423,0.99448 11.699,1.56903 0.3566,0.31192 1.4933,-0.48155 2.9231,-2.04031 2.7094,-2.95401 3.2457,-3.25248 7.2912,-2.67574 2.3305,0.3323 2.7519,0.65666 3.4333,2.64316 0.6953,2.0269 0.5764,2.44794 -1.1339,4.01432 -1.0509,0.96243 -3.1585,2.1602 -4.6839,2.66165 -2.7918,0.9179 -1.4941,1.66559 0.7732,1.41932 1.6425,-0.17841 3.0988,0.6615 4.1458,2.39097 1.7272,2.85304 -2.5497,6.97587 -6.4965,6.26256 -2.9494,-0.53297 -3.8439,-1.34303 -5.8809,-5.32537 -1.1779,-2.30281 -2.0041,-3.3439 -2.2641,-2.85283 -0.2601,0.49104 -1.3674,0.61444 -3.0345,0.33816 -5.1153,-1.02916 -7.7229,0.36762 -10.4417,-0.47169 -0.9405,-0.61568 -1.344,-0.39804 -3.3827,1.82453 -2.6837,2.92588 -3.2338,3.22352 -7.2663,2.6486 -2.3306,-0.33232 -2.752,-0.65668 -3.4333,-2.64315 -0.6953,-2.02691 -0.5764,-2.44794 1.1339,-4.01433 1.0509,-0.96243 3.1585,-2.1602 4.6839,-2.66164 2.7918,-0.91791 1.4941,-1.6656 -0.7732,-1.41932 -3.0499,0.33128 -5.5823,-3.02151 -4.082,-5.40447 0.8783,-1.39518 2.5396,-2.79468 4.0754,-3.43334 0.3305,-0.13747 1.685,0.0258 3.0098,0.36272 z"
         style="fill:#befff1;fill-opacity:1;stroke:#befff1;stroke-opacity:1" />
      <path
         inkscape:export-ydpi="19.997541"
         inkscape:export-xdpi="19.997541"
         inkscape:export-filename="C:\Users\Nina\Desktop\Arbeit\Renate Homepage\B.A.R.F\bilder\icon2.png"
         sodipodi:nodetypes="csssccssccsssccccccsssscsssssssssccssssssscs"
         inkscape:connector-curvature="0"
         id="path3000-7-95-4"
         d="m 1192.9328,575.30994 c -0.021,1.11955 0.423,2.67623 1.3409,3.73051 1.5985,1.83583 5.06,-0.66888 1.8166,2.99546 -3.0161,3.40749 -2.9507,5.45016 -0.383,8.35871 1.4905,1.68834 6.816,1.58305 10.3077,-0.20379 0.7468,-1.22899 2.189,-2.95796 3.248,-4.90286 0.6692,0.37475 -1.0332,-0.5716 9.1574,-1.31608 4.5244,-0.33054 5.4102,-0.0951 6.5549,1.74177 1.4331,2.29977 3.5559,3.91571 5.6162,4.27529 3.9477,0.39924 8.8545,-3.03448 9.0655,-7.08479 0.021,-1.11955 -0.5131,-2.60414 -1.341,-3.7305 -1.3134,-1.78676 -3.5987,-0.79381 -1.8166,-2.99547 2.8632,-3.53703 2.9508,-5.45017 0.3831,-8.35872 -1.4905,-1.68833 -6.816,-1.58305 -10.3078,0.20379 -2.2869,2.72325 -2.4659,4.23421 -2.9449,4.96684 -1.4727,-0.0713 -4.0146,-0.0166 -6.3837,0.15218 -6.3423,-0.10397 -8.7681,1.64799 -9.7095,-0.48198 -1.3078,-2.55555 -3.1065,-3.99458 -5.5348,-4.42814 -5.6797,-0.11164 -8.858,3.02757 -9.069,7.07778 z m 8.0796,-5.12146 c 2.6527,0.1981 4.6107,1.57767 5.9479,4.19067 1.0479,2.04777 -3.2076,1.56739 4.7912,0.82792 9.4226,-0.87112 11.0472,-0.9381 11.7937,-0.48632 0.4053,0.24527 1.387,-0.73354 2.5243,-2.51688 2.1554,-3.37964 2.6317,-3.7667 6.7158,-3.90121 2.3529,-0.0774 2.8241,0.16883 3.8401,2.00681 1.0368,1.87539 0.9928,2.31068 -0.4196,4.15024 -0.8677,1.1303 -2.7354,2.67587 -4.1504,3.43456 -2.5902,1.38876 -1.1823,1.89973 1.0077,1.26351 1.5867,-0.46092 3.1667,0.11334 4.4981,1.63473 2.1964,2.50977 -1.2996,7.31264 -5.3103,7.29552 -2.9971,-0.0127 -4.0187,-0.65513 -6.7163,-4.22327 -1.5599,-2.06327 -2.5544,-2.94508 -2.7252,-2.41633 -0.1708,0.52875 -1.2399,0.84256 -2.9296,0.85995 -5.2164,-0.12524 -7.5417,1.70313 -10.365,1.34867 -1.0331,-0.44301 -1.3927,-0.15861 -3.0144,2.38422 -2.1348,3.34744 -2.6249,3.73608 -6.696,3.87013 -2.3528,0.0775 -2.8241,-0.16883 -3.8402,-2.00679 -1.0366,-1.87539 -0.9926,-2.31068 0.4196,-4.15024 0.8678,-1.1303 2.7355,-2.67586 4.1505,-3.43456 2.5902,-1.38877 1.1822,-1.89974 -1.0077,-1.2635 -2.9461,0.85586 -6.0222,-2.00624 -4.9585,-4.61353 0.6227,-1.52652 2.0156,-3.19323 3.4172,-4.08887 0.3017,-0.19278 1.6639,-0.26725 3.0271,-0.16544 z"
         style="fill:#befff1;fill-opacity:1;stroke:#befff1;stroke-opacity:1" />
      <path
         inkscape:export-ydpi="19.997541"
         inkscape:export-xdpi="19.997541"
         inkscape:export-filename="C:\Users\Nina\Desktop\Arbeit\Renate Homepage\B.A.R.F\bilder\icon2.png"
         sodipodi:nodetypes="csssccssccsssccccccsssscsssssssssccssssssscs"
         inkscape:connector-curvature="0"
         id="path3000-7-113-3"
         d="m 1022.686,552.81321 c -0.1356,0.69467 -0.03,1.71236 0.4253,2.46941 0.7935,1.31824 3.2232,0.13902 0.802,2.06405 -2.2515,1.7901 -2.4351,3.06882 -1.1559,5.16122 0.7425,1.21459 4.0691,1.73359 6.4389,1.00456 0.5997,-0.68308 1.6873,-1.60105 2.5599,-2.69551 0.3755,0.30672 -0.5803,-0.46922 5.845,0.18588 2.8527,0.29086 3.3783,0.5346 3.8892,1.80373 0.6396,1.5889 1.7837,2.82782 3.0268,3.27782 2.4136,0.68183 5.8449,-0.91708 6.4208,-3.41521 0.1357,-0.69467 -0.034,-1.67739 -0.4252,-2.46943 -0.6215,-1.25639 -2.1531,-0.88913 -0.802,-2.06404 2.1705,-1.88752 2.435,-3.06882 1.1559,-5.16123 -0.7425,-1.21458 -4.0692,-1.73358 -6.4389,-1.00456 -1.7226,1.44421 -1.9998,2.36511 -2.3784,2.76861 -0.9089,-0.206 -2.4972,-0.45097 -3.9905,-0.60596 -3.9367,-0.76091 -5.639,0.0634 -5.9913,-1.36578 -0.5335,-1.73436 -1.4953,-2.82758 -2.9593,-3.36401 -3.5233,-0.69291 -5.8464,0.91237 -6.4223,3.41045 z m 5.5917,-2.30125 c 1.6295,0.41448 2.697,1.48817 3.2425,3.26153 0.4276,1.38976 -2.1687,0.62363 2.8916,1.04128 5.9612,0.49199 6.9799,0.6286 7.3949,0.99177 0.2254,0.19717 0.9439,-0.30438 1.8477,-1.28969 1.7127,-1.8672 2.0517,-2.05588 4.6087,-1.69132 1.4732,0.21004 1.7396,0.41508 2.1703,1.67073 0.4394,1.28122 0.3643,1.54735 -0.7168,2.53745 -0.6642,0.60836 -1.9965,1.36546 -2.9606,1.68243 -1.7648,0.5802 -0.9445,1.05282 0.4886,0.89715 1.0383,-0.11277 1.9589,0.41818 2.6206,1.51133 1.0918,1.8034 -1.6116,4.40945 -4.1064,3.95856 -1.8643,-0.33693 -2.4297,-0.84892 -3.7173,-3.36617 -0.7445,-1.45559 -1.2668,-2.11367 -1.4312,-1.80328 -0.1643,0.31041 -0.8643,0.3884 -1.918,0.21376 -3.2335,-0.65056 -4.8817,0.23238 -6.6003,-0.29816 -0.5944,-0.38916 -0.8495,-0.25159 -2.1381,1.15332 -1.6964,1.84944 -2.0441,2.03756 -4.593,1.67416 -1.4732,-0.20996 -1.7395,-0.41508 -2.1703,-1.67074 -0.4394,-1.2812 -0.3643,-1.54734 0.7168,-2.53745 0.6642,-0.60836 1.9965,-1.36545 2.9606,-1.68243 1.7648,-0.58019 0.9445,-1.0528 -0.4886,-0.89714 -1.9279,0.2094 -3.5286,-1.90988 -2.5803,-3.41615 0.5553,-0.8819 1.6053,-1.76653 2.576,-2.17023 0.209,-0.0869 1.0651,0.0163 1.9026,0.22928 z"
         style="fill:#befff1;fill-opacity:1;stroke:#befff1;stroke-opacity:1" />
      <path
         inkscape:export-ydpi="19.997541"
         inkscape:export-xdpi="19.997541"
         inkscape:export-filename="C:\Users\Nina\Desktop\Arbeit\Renate Homepage\B.A.R.F\bilder\icon2.png"
         sodipodi:nodetypes="csssccssccsssccccccsssscsssssssssccssssssscs"
         inkscape:connector-curvature="0"
         id="path3000-7-45-1-9"
         d="m 1776.7228,552.57087 c 0.409,0.92099 1.3629,2.02204 2.5126,2.53283 2.0022,0.88946 3.8729,-2.47017 2.6211,1.75239 -1.164,3.92661 -0.3338,5.56792 2.8669,6.96371 1.8579,0.81022 6.1618,-1.30124 8.3303,-4.08686 0.1417,-1.2865 0.6604,-3.24532 0.7844,-5.23452 0.6884,0.0511 -1.0601,-0.0732 6.9689,-4.55658 3.5647,-1.9905 4.3769,-2.13544 6.0092,-1.07249 2.0437,1.33079 4.3899,1.84148 6.2072,1.35108 3.3719,-1.17585 6.0682,-5.84298 4.6997,-9.22697 -0.4091,-0.92099 -1.409,-1.92902 -2.5127,-2.53284 -1.7509,-0.95788 -3.2373,0.72129 -2.6211,-1.7524 0.99,-3.97409 0.3339,-5.56793 -2.8668,-6.96371 -1.858,-0.81021 -6.1618,1.30123 -8.3304,4.08685 -0.8298,3.09109 -0.4008,4.39169 -0.5128,5.17146 -1.2284,0.50201 -3.2809,1.51348 -5.1492,2.55223 -5.2128,2.32753 -6.5252,4.67923 -8.1032,3.29992 -2.0387,-1.58707 -4.0532,-2.07672 -6.1988,-1.50673 -4.6752,2.06923 -6.0737,5.83873 -4.7053,9.22261 z m 4.6423,-7.25059 c 2.2391,-0.8474 4.361,-0.46686 6.4455,1.15591 1.6336,1.27175 -2.0201,2.4985 4.223,-1.14701 7.3545,-4.29453 8.6541,-4.96708 9.4349,-4.88251 0.4239,0.0459 0.8523,-1.12586 1.1017,-3.01311 0.4727,-3.5765 0.7139,-4.07339 3.994,-5.7365 1.8898,-0.9581 2.3679,-0.9365 3.8957,0.17625 1.5589,1.13542 1.6886,1.50721 1.2363,3.54485 -0.2779,1.25202 -1.2135,3.22312 -2.0791,4.38016 -1.5845,2.11796 -0.2418,1.99923 1.3026,0.64732 1.1188,-0.97945 2.6261,-1.11204 4.2908,-0.3778 2.746,1.21177 1.7213,6.45906 -1.5567,7.97062 -2.4495,1.1296 -3.5271,0.99412 -7.0846,-0.89025 -2.0571,-1.08967 -3.2038,-1.43065 -3.1419,-0.93442 0.062,0.49623 -0.6909,1.15887 -2.0626,1.81573 -4.3025,1.88191 -5.5038,4.25776 -7.9415,5.0425 -1.0112,0.0316 -1.1963,0.40031 -1.5519,3.09128 -0.4682,3.54244 -0.7201,4.04584 -3.9898,5.70364 -1.8897,0.95816 -2.3678,0.93649 -3.8957,-0.17624 -1.5589,-1.13542 -1.6885,-1.5072 -1.2362,-3.54485 0.2779,-1.25202 1.2134,-3.22311 2.0791,-4.38015 1.5845,-2.11797 0.2417,-1.99924 -1.3026,-0.64731 -2.0775,1.81866 -5.6752,0.65411 -5.7993,-1.87716 -0.073,-1.48202 0.4296,-3.37133 1.2321,-4.63494 0.1727,-0.27202 1.2555,-0.85088 2.4062,-1.28635 z"
         style="fill:#befff1;fill-opacity:1;stroke:#befff1;stroke-opacity:1" />
      <path
         inkscape:export-ydpi="19.997541"
         inkscape:export-xdpi="19.997541"
         inkscape:export-filename="C:\Users\Nina\Desktop\Arbeit\Renate Homepage\B.A.R.F\bilder\icon2.png"
         sodipodi:nodetypes="csssccssccsssccccccsssscsssssssssccssssssscs"
         inkscape:connector-curvature="0"
         id="path3000-7-5-3-8"
         d="m 1641.3015,564.21711 c -0.015,0.81616 0.3084,1.95098 0.9775,2.71954 1.1653,1.33833 3.6888,-0.48761 1.3244,2.18369 -2.1988,2.48407 -2.1512,3.97317 -0.2793,6.0935 1.0865,1.23081 4.9689,1.15405 7.5144,-0.14855 0.5444,-0.89594 1.5957,-2.15636 2.3677,-3.57419 0.4879,0.2732 -0.7532,-0.4167 6.6758,-0.95943 3.2982,-0.24096 3.9441,-0.0694 4.7786,1.26976 1.0446,1.67652 2.5921,2.85455 4.0942,3.11669 2.8778,0.29103 6.4548,-2.21214 6.6086,-5.16482 0.015,-0.81615 -0.374,-1.89842 -0.9775,-2.71953 -0.9574,-1.30255 -2.6235,-0.57869 -1.3243,-2.18369 2.0872,-2.5785 2.1511,-3.97318 0.2793,-6.09352 -1.0866,-1.23079 -4.9689,-1.15404 -7.5144,0.14856 -1.6672,1.98526 -1.7977,3.08675 -2.1469,3.62083 -1.0735,-0.052 -2.9266,-0.012 -4.6537,0.11095 -4.6235,-0.0758 -6.3919,1.20137 -7.0782,-0.35138 -0.9534,-1.86298 -2.2646,-2.91204 -4.0349,-3.22811 -4.1405,-0.0814 -6.4575,2.2071 -6.6113,5.1597 z m 5.89,-3.73354 c 1.9339,0.14442 3.3613,1.15012 4.3361,3.05501 0.7638,1.49281 -2.3383,1.14261 3.4927,0.60355 6.8691,-0.63505 8.0535,-0.68388 8.5976,-0.35454 0.2955,0.17881 1.0111,-0.53475 1.8403,-1.8348 1.5712,-2.46376 1.9185,-2.74592 4.8958,-2.84399 1.7152,-0.0565 2.0588,0.12308 2.7995,1.46298 0.7557,1.36715 0.7236,1.68448 -0.3059,3.02552 -0.6326,0.82399 -1.9942,1.9507 -3.0257,2.50379 -1.8882,1.01241 -0.8618,1.38491 0.7347,0.9211 1.1566,-0.33601 2.3085,0.0826 3.2791,1.19172 1.6011,1.82963 -0.9475,5.33091 -3.8713,5.31844 -2.1849,-0.009 -2.9296,-0.4776 -4.8962,-3.07876 -1.1371,-1.50413 -1.8621,-2.14697 -1.9866,-1.76152 -0.1245,0.38546 -0.9038,0.61424 -2.1357,0.62691 -3.8027,-0.0913 -5.4979,1.24157 -7.5561,0.98317 -0.7531,-0.32294 -1.0152,-0.11561 -2.1975,1.7381 -1.5563,2.44029 -1.9136,2.7236 -4.8813,2.82134 -1.7153,0.0566 -2.0589,-0.12309 -2.7996,-1.46296 -0.7556,-1.36716 -0.7236,-1.68448 0.306,-3.02552 0.6325,-0.824 1.9941,-1.95071 3.0256,-2.5038 1.8883,-1.01241 0.8619,-1.38491 -0.7346,-0.92109 -2.1477,0.62392 -4.3902,-1.46255 -3.6148,-3.36327 0.454,-1.11283 1.4694,-2.32786 2.4912,-2.98078 0.2199,-0.14054 1.213,-0.19483 2.2067,-0.12061 z"
         style="fill:#befff1;fill-opacity:1;stroke:#befff1;stroke-opacity:1" />
      <path
         inkscape:export-ydpi="19.997541"
         inkscape:export-xdpi="19.997541"
         inkscape:export-filename="C:\Users\Nina\Desktop\Arbeit\Renate Homepage\B.A.R.F\bilder\icon2.png"
         sodipodi:nodetypes="csssccssccsssccccccsssscsssssssssccssssssscs"
         inkscape:connector-curvature="0"
         id="path3000-7-23-8-8"
         d="m 1553.2731,541.19711 c -0.2651,1.35675 -0.059,3.34447 0.8305,4.82307 1.5499,2.5747 6.2954,0.27152 1.5664,4.03134 -4.3974,3.49629 -4.7559,5.9938 -2.2576,10.08051 1.4503,2.37224 7.9476,3.38592 12.576,1.96203 1.1715,-1.33413 3.2956,-3.12705 5,-5.26467 0.7332,0.59908 -1.1336,-0.91645 11.4159,0.36306 5.5716,0.56806 6.5982,1.04419 7.5961,3.52291 1.2493,3.10331 3.4838,5.52307 5.9118,6.40198 4.714,1.33169 11.4158,-1.79115 12.5406,-6.67033 0.2651,-1.35676 -0.066,-3.27614 -0.8306,-4.82307 -1.2137,-2.45392 -4.2051,-1.73661 -1.5664,-4.03136 4.2392,-3.68658 4.756,-5.9938 2.2576,-10.08053 -1.4502,-2.37222 -7.9475,-3.3859 -12.5759,-1.96201 -3.3644,2.8207 -3.9059,4.61936 -4.6453,5.40741 -1.7753,-0.40238 -4.8774,-0.88081 -7.794,-1.18351 -7.6888,-1.48607 -11.0137,0.12393 -11.7017,-2.66754 -1.0421,-3.38741 -2.9205,-5.52261 -5.7799,-6.57033 -6.8815,-1.35334 -11.4187,1.78197 -12.5435,6.66104 z m 10.9212,-4.49463 c 3.1827,0.80954 5.2676,2.90659 6.3331,6.37019 0.835,2.71435 -4.2358,1.218 5.6477,2.03372 11.6429,0.96092 13.6325,1.22776 14.4432,1.93706 0.4401,0.3851 1.8435,-0.5945 3.6087,-2.51889 3.345,-3.64692 4.0071,-4.0154 9.0014,-3.3034 2.8772,0.41023 3.3975,0.81072 4.2388,3.26318 0.8583,2.50236 0.7115,3.02215 -1.4,4.95595 -1.2972,1.1882 -3.8994,2.66691 -5.7824,3.28599 -3.4469,1.1332 -1.8447,2.05627 0.9544,1.75225 2.0277,-0.22026 3.8258,0.81668 5.1183,2.95182 2.1323,3.52226 -3.1478,8.61218 -8.0204,7.73155 -3.6412,-0.65805 -4.7455,-1.65805 -7.2603,-6.57455 -1.4542,-2.84295 -2.4743,-4.12827 -2.7953,-3.52202 -0.321,0.60625 -1.6881,0.75859 -3.7462,0.41748 -6.3153,-1.27054 -9.5345,0.45388 -12.8911,-0.58233 -1.161,-0.76008 -1.6592,-0.4914 -4.176,2.25255 -3.3133,3.61219 -3.9924,3.97962 -8.9708,3.26986 -2.8772,-0.41021 -3.3974,-0.81071 -4.2387,-3.26315 -0.8583,-2.50236 -0.7115,-3.02216 1.3999,-4.95595 1.2974,-1.18821 3.8994,-2.66692 5.7825,-3.286 3.4469,-1.1332 1.8446,-2.05628 -0.9544,-1.75224 -3.7653,0.409 -6.8917,-3.73023 -5.0395,-6.67217 1.0844,-1.72247 3.1352,-3.45026 5.0312,-4.23871 0.4081,-0.16972 2.0803,0.0318 3.7159,0.4478 z"
         style="fill:#befff1;fill-opacity:1;stroke:#befff1;stroke-opacity:1" />
      <path
         inkscape:export-ydpi="19.997541"
         inkscape:export-xdpi="19.997541"
         inkscape:export-filename="C:\Users\Nina\Desktop\Arbeit\Renate Homepage\B.A.R.F\bilder\icon2.png"
         sodipodi:nodetypes="csssccssccsssccccccsssscsssssssssccssssssscs"
         inkscape:connector-curvature="0"
         id="path3000-7-8-3-0"
         d="m 1712.3576,552.79818 c -0.4966,1.29011 -0.6392,3.28334 -0.019,4.89403 1.0792,2.80472 6.1526,1.36057 0.8426,4.24211 -4.9378,2.67956 -5.7245,5.07687 -3.9738,9.53534 1.0163,2.58801 7.2389,4.71455 12.0443,4.116 1.3853,-1.11044 3.7884,-2.50728 5.8381,-4.31646 0.6181,0.71731 -0.9572,-1.09937 11.1794,2.3399 5.3884,1.52694 6.3167,2.1741 6.869,4.78844 0.6915,3.27312 2.4719,6.04412 4.7103,7.33129 4.4112,2.13005 11.5534,0.21839 13.5084,-4.39133 0.4966,-1.29012 0.5045,-3.23773 0.019,-4.89404 -0.7691,-2.6274 -3.8397,-2.44044 -0.8426,-4.24211 4.8151,-2.89444 5.7246,-5.07688 3.9739,-9.53536 -1.0163,-2.58798 -7.2389,-4.71453 -12.0443,-4.11598 -3.803,2.19363 -4.6486,3.87093 -5.5137,4.51861 -1.6784,-0.70454 -4.6503,-1.71438 -7.47,-2.51896 -7.314,-2.79863 -10.868,-1.79045 -11.0608,-4.65896 -0.438,-3.51693 -1.917,-5.94585 -4.5512,-7.47419 -6.5419,-2.52775 -11.5546,-0.22795 -13.5096,4.38167 z m 11.5358,-2.52989 c 2.9938,1.34992 4.6828,3.77713 5.1307,7.37313 0.3511,2.81812 -4.3829,0.46397 5.2087,2.98354 11.2992,2.96811 13.2123,3.57637 13.8875,4.41567 0.3666,0.45568 1.9188,-0.26533 3.9913,-1.85397 3.9275,-3.01066 4.6436,-3.25856 9.4383,-1.69013 2.7623,0.90362 3.2051,1.38837 3.6077,3.94965 0.4108,2.61339 0.1759,3.0998 -2.2392,4.63756 -1.484,0.94488 -4.3034,1.94927 -6.2653,2.23196 -3.5913,0.51744 -2.1737,1.70471 0.6356,1.89135 2.0353,0.13521 3.6259,1.46862 4.5281,3.79577 1.4882,3.83902 -4.5955,7.93474 -9.2412,6.22136 -3.4716,-1.28035 -4.3855,-2.45691 -6.0084,-7.7354 -0.9384,-3.05228 -1.7198,-4.4952 -2.1412,-3.95392 -0.4214,0.54131 -1.7942,0.45393 -3.7618,-0.23938 -5.9986,-2.34787 -9.4684,-1.20866 -12.5941,-2.81199 -1.0114,-0.95015 -1.5486,-0.77205 -4.5037,1.49316 -3.8902,2.98198 -4.6228,3.22589 -9.4023,1.66243 -2.7623,-0.90361 -3.2051,-1.38837 -3.6077,-3.94963 -0.4108,-2.61339 -0.176,-3.0998 2.2392,-4.63756 1.484,-0.94488 4.3033,-1.94927 6.2653,-2.23197 3.5913,-0.51744 2.1736,-1.7047 -0.6357,-1.89133 -3.7791,-0.25105 -6.1392,-4.87029 -3.8043,-7.44593 1.3671,-1.50797 3.6867,-2.8534 5.6908,-3.30064 0.4315,-0.0963 2.0432,0.39251 3.5817,1.08626 z"
         style="fill:#befff1;fill-opacity:1;stroke:#befff1;stroke-opacity:1" />
      <path
         sodipodi:nodetypes="sssssssssssssscsssssssssssssscsssscssscssscssscsssssscssscssssssssssssscsssscssscssscsssscsssssscsssssssscssssscsscssssssscccsssssssssssssssssssssssssscsssssssssssssssssscsssssssccsssssssscsssssssssssssssssssssssssssssssssssccsssssssssssssssssssssssssssssssssscsscsssssssssssscsccs"
         inkscape:connector-curvature="0"
         id="path3874"
         d="m 522.39675,607.91607 c -3.35353,-0.90288 -17.9968,-7.67805 -27.34983,-12.65427 -11.90798,-6.33554 -17.22925,-9.92103 -21.91916,-14.76922 -3.79279,-3.92077 -5.12718,-6.49352 -5.51123,-10.62592 -0.12641,-1.35994 -0.17082,-1.47279 -0.4726,-1.20045 -0.18318,0.16533 -0.87977,0.5879 -1.54796,0.93907 -1.5181,0.79785 -3.42347,0.87806 -5.18666,0.21836 -1.19612,-0.44753 -2.53304,-1.58209 -2.85161,-2.42 -0.28468,-0.74873 -0.23561,-2.35184 0.10681,-3.48955 0.34495,-1.14615 0.3546,-1.15404 -1.20484,0.98302 -1.32245,1.81222 -2.34655,2.64359 -4.03445,3.27511 -2.58953,0.96887 -4.95846,0.73522 -6.3167,-0.62301 -0.73733,-0.73735 -0.78609,-0.86439 -0.78609,-2.04855 0,-0.77711 0.16126,-1.67156 0.41946,-2.32661 l 0.41944,-1.06416 -0.48854,0.38428 c -0.2687,0.21137 -1.04136,0.98322 -1.71706,1.71523 -2.06267,2.23462 -4.86307,4.55266 -6.45368,5.34203 -1.29952,0.64492 -1.67061,0.7357 -2.92924,0.71653 -2.51758,-0.0383 -4.05624,-0.84919 -4.92696,-2.59646 -0.59341,-1.19089 -0.65183,-2.10266 -0.20348,-3.17577 0.17277,-0.41354 0.27526,-0.79078 0.22774,-0.8383 -0.0475,-0.0475 -0.44584,0.0966 -0.88507,0.32041 -2.90591,1.48014 -6.73372,1.38672 -8.67283,-0.21166 -1.3321,-1.09805 -1.67627,-2.02743 -1.67627,-4.52616 0,-1.94122 0.0621,-2.31272 0.56759,-3.39163 1.12185,-2.39466 2.62231,-3.76108 4.83709,-4.40492 0.98793,-0.2872 1.71595,-0.33374 3.72491,-0.23808 2.26425,0.1078 3.17465,0.284 5.80551,1.12356 0.38962,0.12435 0.38903,0.10978 -0.0202,-0.47698 -0.60407,-0.86628 -0.90077,-1.86511 -0.90077,-3.03211 0,-2.50089 1.99154,-4.23282 5.48705,-4.77176 1.22439,-0.18879 1.69133,-0.16885 2.81253,0.12002 2.72894,0.70312 4.64231,2.33563 7.10041,6.05815 0.93434,1.41496 1.71527,2.5504 1.7354,2.52321 0.0201,-0.0272 -0.052,-0.88679 -0.16067,-1.9102 -0.22262,-2.09968 -0.0362,-3.43574 0.69654,-4.99476 0.61198,-1.30196 1.94103,-2.55888 3.01053,-2.84715 l 0.85429,-0.23028 -0.1045,-1.83167 c -0.12943,-2.27006 0.21828,-3.32042 1.486,-4.48898 1.25095,-1.15308 2.84931,-1.70536 4.9355,-1.70536 l 1.6777,0 -1.84122,-1.92676 c -6.05044,-6.33158 -7.31837,-10.53726 -4.06335,-13.47799 1.78501,-1.61264 3.37986,-1.56546 6.72226,0.19887 0.077,0.0407 0.002,-0.42198 -0.16741,-1.02814 -0.50524,-1.81068 -0.60449,-5.2465 -0.20361,-7.04837 1.16056,-5.21642 4.85595,-8.31069 9.57374,-8.01637 2.82012,0.17596 5.02563,1.54402 6.12618,3.80005 0.4199,0.86074 0.50252,1.34736 0.5094,2.99978 0.008,1.85276 -0.0382,2.06947 -0.75646,3.57362 -0.82555,1.72882 -2.56792,4.19354 -3.77693,5.34278 -0.41398,0.39351 -0.75266,0.76722 -0.7526,0.83047 5e-5,0.0631 0.49806,0.1365 1.10668,0.16276 2.45144,0.10582 3.88417,1.41856 3.8715,3.54716 -0.009,1.44288 -0.69819,2.46002 -3.53045,5.20736 -1.48366,1.43918 -2.69687,2.66342 -2.69599,2.72052 0.002,0.0571 0.61468,0.0723 1.364,0.0335 1.72906,-0.0891 3.22033,0.57732 4.1019,1.83297 0.32143,0.45783 0.70299,0.83243 0.84794,0.83243 0.14496,0 0.80179,0.37701 1.45964,0.83786 0.65784,0.46081 1.14667,0.71774 1.08629,0.57094 -0.83948,-2.04082 -1.44441,-4.44483 -1.53827,-6.11306 -0.13187,-2.34347 -0.0293,-2.77221 0.91279,-3.81498 1.4978,-1.65788 4.16282,-1.89046 6.19571,-0.5407 0.62909,0.41769 1.14369,0.73514 1.14352,0.70542 -1.4e-4,-0.0297 -0.14016,-0.84817 -0.31115,-1.81878 -0.95656,-5.43041 0.47863,-9.1681 3.78488,-9.85709 0.8996,-0.18746 2.77697,0.22318 3.62467,0.79283 0.37816,0.25412 0.9754,0.94218 1.32719,1.52903 l 0.63966,1.06698 1.01765,-1.55561 c 1.78777,-2.73287 3.73124,-3.93249 6.09673,-3.76323 2.09416,0.14982 3.71457,1.18352 4.6246,2.9501 1.33056,2.58294 -0.39807,5.2809 -4.42876,6.91216 -0.78187,0.31642 -1.42273,0.63625 -1.42412,0.71071 -0.002,0.0745 0.29276,0.23836 0.65371,0.36419 1.67718,0.58467 2.87121,2.05424 2.87245,3.53532 0.002,2.82224 -2.33239,4.22965 -7.50665,4.52506 l -2.00555,0.1145 0.6116,0.51463 c 1.83072,1.54045 1.59499,4.14356 -0.54588,6.02802 -1.16355,1.0242 -2.60631,1.53005 -5.47822,1.9207 l -1.94934,0.26516 0.98234,0.38587 c 1.31911,0.51815 2.29619,1.29333 2.62216,2.08031 0.39972,0.96497 0.30615,2.44701 -0.21952,3.47743 -0.56281,1.10319 -2.07469,2.74689 -3.32722,3.61734 l -0.93428,0.64928 1.86857,0.12481 c 5.98066,0.39946 12.25847,4.71481 18.38862,12.64025 7.38982,9.55402 13.31845,20.29253 17.03154,30.84915 1.9471,5.53576 2.53911,8.85624 1.98563,11.13705 -0.37946,1.56381 -0.81919,2.19206 -1.8674,2.66796 -1.01982,0.46303 -1.91434,0.48415 -3.41336,0.0806 z m 2.95292,-0.80275 c 0.96627,-0.40373 1.36683,-1.10679 1.57319,-2.76123 0.23812,-1.90901 -0.0371,-3.77201 -1.04886,-7.10087 -4.01586,-13.21237 -13.59023,-29.79009 -22.20457,-38.44651 -3.79424,-3.81278 -6.36282,-5.42574 -10.43609,-6.85878 -0.50505,-0.17768 -1.98155,-0.63615 -4.92522,-0.54218 -3.2739,0.1045 -4.90039,0.43825 -7.83559,1.60777 -6.44833,2.5693 -11.04647,8.11434 -11.90039,14.35104 -0.36259,2.64817 0.20739,5.79011 1.42662,7.86405 l 0.54923,0.93427 0.13382,-2.07618 c 0.18538,-2.87642 0.70428,-4.3089 2.35218,-6.49339 1.05293,-1.39576 3.46851,-3.57609 3.96198,-3.57609 0.60002,0 0.26043,0.47983 -1.73569,2.45245 -2.97744,2.94239 -3.77109,4.79216 -3.77554,8.79963 l -0.002,2.22069 1.35609,1.54872 c 0.74586,0.8518 1.75621,1.87659 2.24526,2.27731 l 0.88914,0.72859 -0.0868,-0.59154 c -0.12981,-0.88459 0.5287,-3.84494 1.23094,-5.53361 0.67992,-1.63495 2.04315,-3.67721 2.68324,-4.01977 0.71568,-0.38302 0.72981,0.3345 0.0223,1.14011 -2.0439,2.32788 -3.54337,7.01534 -2.94957,9.22059 0.19317,0.71733 0.50577,1.08381 1.80581,2.11689 5.82459,4.62858 21.57459,13.1338 36.71467,19.8264 4.75793,2.10322 7.6905,3.18425 8.67472,3.19777 0.31769,0.005 0.89436,-0.1244 1.28147,-0.28613 z m -88.37548,-38.21545 c 1.56655,-0.72931 3.11176,-1.99506 5.9606,-4.88265 2.88783,-2.9271 4.75076,-4.45361 5.21681,-4.27478 0.27077,0.10395 0.23167,0.27537 -0.25285,1.10885 -1.33465,2.29593 -1.62745,3.03779 -1.70987,4.33225 -0.0767,1.20555 -0.0407,1.34065 0.49016,1.83257 1.13845,1.05507 3.27931,1.1839 5.52077,0.33222 1.66295,-0.63189 2.30668,-1.1867 3.92792,-3.38551 1.53376,-2.08015 2.55084,-3.05985 3.17657,-3.05985 0.49109,0 0.43049,0.39083 -0.30392,1.96023 -0.90251,1.92864 -1.03376,3.68148 -0.35067,4.68353 0.75023,1.10057 2.0273,1.7094 3.82792,1.82496 1.33294,0.0856 1.65601,0.0309 2.62799,-0.44468 1.87681,-0.91823 2.54726,-1.68168 2.94431,-3.35264 0.38579,-1.6237 1.14008,-3.44488 2.04658,-4.94134 0.33203,-0.54811 0.56946,-1.03015 0.52759,-1.07118 -0.13634,-0.13364 -6.0048,-0.94773 -9.93796,-1.37862 -2.87928,-0.31544 -5.87711,-0.45044 -11.97355,-0.53923 -8.21832,-0.11971 -11.79962,0.01 -18.93421,0.68681 -2.43672,0.23108 -3.46189,0.25872 -3.62292,0.0977 -0.41551,-0.41551 0.14001,-0.61343 2.34991,-0.83716 5.58602,-0.56555 11.36731,-0.84369 17.54369,-0.84402 8.89112,-0.002 14.33743,0.38145 22.00556,1.54313 2.48318,0.37619 3.35803,0.44175 3.47103,0.26012 0.10978,-0.17646 -0.4289,-0.27931 -1.97041,-0.37622 -3.11482,-0.19582 -5.18792,-0.68154 -7.20206,-1.68739 -2.39588,-1.1965 -3.01674,-2.05427 -3.01611,-4.16694 0.002,-1.12489 0.11055,-1.69619 0.45302,-2.34826 0.41942,-0.79854 0.43177,-0.93092 0.16859,-1.80545 -0.41797,-1.3888 -0.65169,-1.733 -1.28464,-1.89185 -1.19123,-0.29898 -2.89521,-1.247 -3.60667,-2.00659 -0.72756,-0.77681 -0.75318,-0.7857 -1.55715,-0.54046 -1.16419,0.35512 -2.44645,1.71371 -2.9034,3.07625 -0.43033,1.28316 -0.47408,2.44154 -0.21688,5.74267 0.15836,2.03211 0.14095,2.3357 -0.13386,2.3357 -0.17728,0 -1.27046,-1.43469 -2.4916,-3.26998 -3.45096,-5.18661 -5.46965,-6.7647 -8.66658,-6.77496 -1.77328,-0.005 -2.79966,0.27618 -4.18907,1.1504 -1.13375,0.71336 -1.62827,1.61343 -1.62827,2.96357 0,1.32325 0.42005,2.21188 1.67057,3.53413 0.96926,1.02484 1.16798,1.56637 0.5748,1.56637 -0.12185,0 -1.02727,-0.32082 -2.01201,-0.71291 -2.56397,-1.02089 -4.81211,-1.42608 -7.36412,-1.32726 -1.71199,0.0663 -2.29625,0.17636 -3.10829,0.58558 -1.27393,0.64195 -2.51799,1.99085 -3.22282,3.4944 -0.47681,1.01712 -0.55226,1.448 -0.55181,3.15065 0,2.56418 0.43107,3.47416 2.02701,4.28674 2.2227,1.13168 4.77088,0.8874 8.07555,-0.77417 1.59857,-0.80373 2.25019,-0.98649 2.25019,-0.63108 0,0.10032 -0.32574,0.72336 -0.72385,1.38446 -0.93132,1.54664 -1.08081,2.35689 -0.64524,3.49739 0.63629,1.66613 1.92017,2.38643 4.27574,2.39879 1.00917,0.004 1.62649,-0.12188 2.44791,-0.50428 z m 36.98722,-12.81993 1.40276,-1.29351 -1.2885,-1.58301 c -3.11146,-3.82264 -5.28427,-7.74968 -6.7282,-12.16029 -1.22246,-3.73409 -1.55482,-5.95597 -1.5636,-10.4524 -0.008,-4.12491 0.28193,-6.60265 1.23924,-10.58853 1.02488,-4.26731 3.43914,-11.00375 3.9436,-11.00375 0.54962,0 0.49003,0.3718 -0.43561,2.71775 -5.00266,12.67909 -5.29759,23.58806 -0.89195,32.99251 1.35622,2.89506 4.55491,7.70064 6.05674,9.09943 l 0.51884,0.48324 0.79994,-0.50446 c 0.43998,-0.27744 1.45395,-0.792 2.25328,-1.14346 1.40844,-0.6193 1.46744,-0.67533 1.9104,-1.81383 1.59832,-4.10817 1.3602,-7.81863 -0.56813,-8.85279 -1.31664,-0.70615 -3.38128,-0.313 -5.63326,1.07266 -0.76761,0.47231 -1.11949,0.58799 -1.28502,0.42245 -0.25588,-0.25587 -0.28077,-0.21297 1.16091,-2.00074 2.45796,-3.04799 3.18525,-6.22485 1.80564,-7.88717 -0.93406,-1.12549 -3.46604,-1.46762 -5.16323,-0.69768 -0.92258,0.41853 -1.46631,0.41049 -1.46631,-0.0217 0,-0.12676 1.52842,-1.79064 3.39651,-3.69754 1.86809,-1.90686 3.56019,-3.78356 3.76025,-4.17042 0.71851,-1.38945 0.0692,-3.2236 -1.34346,-3.79533 -0.28547,-0.11553 -1.33242,-0.20131 -2.32656,-0.19062 -0.99413,0.011 -1.85991,-0.0653 -1.92397,-0.16901 -0.064,-0.10362 0.64435,-0.96477 1.57425,-1.91359 3.90486,-3.98439 5.40302,-7.56909 4.44125,-10.62677 -0.73762,-2.34511 -2.77735,-3.83506 -5.51866,-4.03119 -3.91004,-0.27977 -7.11056,2.01617 -8.52638,6.11653 -0.68604,1.9868 -0.68152,5.74539 0.01,8.54507 0.57763,2.33767 0.43344,2.67623 -0.7448,1.74894 -1.86361,-1.46667 -3.99806,-2.06295 -5.16678,-1.44335 -1.59571,0.84596 -2.44284,2.19622 -2.43362,3.87905 0.0133,2.41174 1.64614,5.05497 5.7184,9.25655 1.45593,1.50216 2.64713,2.82763 2.64713,2.9455 0,0.13281 -1.04576,0.24225 -2.75094,0.28785 -2.59528,0.0694 -2.81428,0.10857 -3.87046,0.69229 -0.66748,0.36891 -1.33814,0.9494 -1.66094,1.43768 -0.48425,0.73247 -0.54113,1.01781 -0.53855,2.70187 0.003,2.21559 0.29476,2.91906 1.60115,3.86539 1.08108,0.78314 2.96814,1.36154 6.34689,1.9454 1.87429,0.32388 2.65321,0.54263 2.69442,0.7567 0.0386,0.20043 -0.60693,0.60613 -1.93045,1.21324 -2.87537,1.31896 -3.75482,2.62921 -3.32175,4.94886 0.43754,2.34344 4.80433,4.12565 10.24926,4.18301 l 2.14726,0.0227 z m 9.86586,-5.03211 c 0.68057,-0.17498 1.39382,-0.31816 1.58499,-0.31816 0.19117,0 1.10944,-0.38133 2.04061,-0.84738 2.87046,-1.43671 4.81328,-3.73596 4.84344,-5.73201 0.0262,-1.73483 -1.30816,-2.72779 -4.3734,-3.25438 -1.87504,-0.32211 -2.01437,-0.38405 -1.84678,-0.8208 0.0707,-0.18437 0.59549,-0.34407 1.42706,-0.43429 2.10186,-0.22809 6.24192,-0.94335 6.92087,-1.1957 1.88802,-0.70169 3.21809,-2.30493 3.21809,-3.87903 0,-1.2791 -0.93708,-2.22169 -2.81299,-2.82952 -0.86499,-0.28026 -1.44319,-0.58269 -1.44319,-0.75483 0,-0.22877 0.7603,-0.31532 3.73712,-0.42541 5.1719,-0.19129 7.26202,-0.81943 7.91331,-2.3782 0.87364,-2.09091 -0.15843,-3.53478 -3.23264,-4.52244 -1.84605,-0.5931 -1.7849,-0.91569 0.30217,-1.59426 2.94037,-0.95601 4.93132,-2.20846 5.6163,-3.53306 1.21594,-2.35138 -1.12672,-5.37755 -4.16297,-5.37755 -2.18459,0 -3.98733,1.42372 -5.81508,4.59251 -0.51902,0.89981 -1.06424,1.63603 -1.2116,1.63603 -0.14735,0 -0.42916,-0.51148 -0.6262,-1.1366 -0.60433,-1.91714 -1.63445,-2.84189 -3.47271,-3.11757 -1.04987,-0.15742 -2.23344,0.21923 -3.02474,0.96262 -1.41355,1.32796 -1.82464,4.38545 -1.12958,8.40125 0.23938,1.38296 0.43522,2.6676 0.43522,2.85474 0,0.60774 -0.64493,0.36177 -1.78617,-0.68126 -0.61473,-0.56184 -1.45642,-1.1333 -1.87037,-1.26993 -1.5129,-0.4993 -3.73588,0.16606 -4.47888,1.34057 -0.34672,0.54809 -0.39243,0.92135 -0.31986,2.61184 0.0727,1.69231 0.22425,2.37036 1.06762,4.77521 1.18684,3.38424 1.31577,3.94474 0.90745,3.94474 -0.16434,0 -0.52531,-0.2423 -0.80213,-0.53847 -0.27685,-0.29617 -1.05999,-0.95782 -1.74036,-1.47035 -1.35826,-1.02319 -1.51912,-0.97178 -1.55124,0.49581 -0.0204,0.92928 -0.74622,2.77774 -1.5737,4.00736 -0.38313,0.56935 -0.67956,1.03511 -0.65875,1.03507 0.0208,-8e-5 0.52938,-0.18693 1.1301,-0.41524 1.87155,-0.71135 3.53775,-0.50816 4.66702,0.56912 0.31282,0.29844 0.59311,0.50271 0.62285,0.45392 0.0298,-0.0488 0.73584,-1.47639 1.5691,-3.17251 1.67563,-3.41075 3.33534,-6.15051 5.28094,-8.71744 1.57972,-2.08423 5.14205,-5.78163 7.18181,-7.45414 2.05215,-1.68266 6.0116,-4.30922 6.496,-4.30922 0.75825,0 0.37818,0.57225 -0.90578,1.36384 -4.50221,2.77567 -8.7419,6.52732 -11.71518,10.36659 -2.29125,2.9586 -3.9226,5.65656 -5.96871,9.87124 -1.4305,2.94664 -1.51424,3.19493 -1.31687,3.90439 0.39769,1.42941 -0.075,4.75422 -1.02976,7.24213 -0.0882,0.22973 -0.0162,0.27937 0.2754,0.18997 0.21711,-0.0666 0.95157,-0.26419 1.63217,-0.4392 z m -21.4923,-3.20636 1.12979,-0.58482 -1.41361,-0.24617 c -0.77748,-0.1354 -1.4587,-0.20108 -1.51382,-0.14596 -0.13515,0.13515 0.3518,1.58394 0.52823,1.57155 0.0768,-0.005 0.64801,-0.27295 1.26941,-0.5946 z"
         style="fill:#befff1;fill-opacity:1;stroke:#befff1;stroke-width:2;stroke-miterlimit:4;stroke-opacity:1;stroke-dasharray:none" />
      <path
         inkscape:export-ydpi="19.997541"
         inkscape:export-xdpi="19.997541"
         inkscape:export-filename="C:\Users\Nina\Desktop\Arbeit\Renate Homepage\B.A.R.F\bilder\icon2.png"
         sodipodi:nodetypes="csssccssccsssccccccsssscsssssssssccssssssscs"
         inkscape:connector-curvature="0"
         id="path3000-7-18-7"
         d="m 296.32851,566.96985 c 0.4969,-1.29004 0.6391,-3.28338 0.019,-4.89404 -1.0792,-2.8047 -6.1525,-1.36055 -0.8426,-4.24209 4.9378,-2.67957 5.7245,-5.07688 3.9738,-9.53534 -1.0162,-2.58801 -7.2389,-4.71456 -12.0443,-4.11602 -1.3852,1.11045 -3.7884,2.50729 -5.8381,4.31646 -0.6181,-0.71732 0.9573,1.09939 -11.1794,-2.33988 -5.3884,-1.52694 -6.3167,-2.17411 -6.8691,-4.78847 -0.6914,-3.2731 -2.4718,-6.0441 -4.7102,-7.33126 -4.4113,-2.13006 -11.5535,-0.2184 -13.5085,4.39133 -0.4968,1.29005 -0.5043,3.23776 -0.019,4.89403 0.7692,2.62738 3.8397,2.44044 0.8426,4.24212 -4.815,2.8944 -5.7245,5.07688 -3.9738,9.53534 1.0163,2.588 7.239,4.71456 12.0442,4.11598 3.8031,-2.1936 4.6488,-3.87091 5.5139,-4.51859 1.6783,0.70451 4.6503,1.71438 7.4701,2.51895 7.3139,2.79863 10.8678,1.79044 11.0606,4.65896 0.4381,3.51691 1.9171,5.94584 4.5512,7.47418 6.542,2.52776 11.5547,0.22794 13.5096,-4.38168 z m -11.5358,2.52988 c -2.9937,-1.34991 -4.6828,-3.77714 -5.1307,-7.37314 -0.351,-2.8181 4.383,-0.46394 -5.2086,-2.9835 -11.2992,-2.96812 -13.2123,-3.5764 -13.8875,-4.41571 -0.3666,-0.45566 -1.9189,0.26536 -3.9914,1.854 -3.9275,3.01066 -4.6436,3.25856 -9.4383,1.69014 -2.7623,-0.90363 -3.2051,-1.38839 -3.6077,-3.94967 -0.4108,-2.61339 -0.176,-3.0998 2.2392,-4.63759 1.484,-0.94484 4.3034,-1.94922 6.2652,-2.23193 3.5914,-0.51744 2.1737,-1.70472 -0.6356,-1.89136 -2.0352,-0.1352 -3.6259,-1.46862 -4.528,-3.79576 -1.4882,-3.83902 4.5955,-7.93474 9.2412,-6.22136 3.4717,1.28036 4.3856,2.45692 6.0085,7.7354 0.9384,3.05228 1.7198,4.49522 2.1412,3.95391 0.4214,-0.54128 1.7941,-0.45394 3.7617,0.23937 5.9988,2.34791 9.4684,1.20867 12.5941,2.812 1.0114,0.95016 1.5487,0.77206 4.5038,-1.49314 3.8902,-2.98198 4.6228,-3.22591 9.4023,-1.66244 2.7623,0.90362 3.205,1.38836 3.6077,3.94962 0.4108,2.61339 0.1759,3.0998 -2.2392,4.63759 -1.484,0.94485 -4.3034,1.94925 -6.2653,2.23193 -3.5912,0.51748 -2.1737,1.70472 0.6356,1.89135 3.7792,0.25107 6.1393,4.87031 3.8044,7.4459 -1.3671,1.508 -3.6867,2.85342 -5.6908,3.30066 -0.4315,0.0963 -2.0432,-0.39252 -3.5818,-1.08625 z"
         style="fill:#befff1;fill-opacity:1;stroke:#befff1;stroke-opacity:1" />
      <path
         inkscape:export-ydpi="19.997541"
         inkscape:export-xdpi="19.997541"
         inkscape:export-filename="C:\Users\Nina\Desktop\Arbeit\Renate Homepage\B.A.R.F\bilder\icon2.png"
         sodipodi:nodetypes="csssccssccsssccccccsssscsssssssssccssssssscs"
         inkscape:connector-curvature="0"
         id="path3000-7-1-9-7"
         d="m 392.81044,560.51557 c -0.4544,-1.02348 -1.5145,-2.24674 -2.7919,-2.81431 -2.2247,-0.98829 -4.3033,2.74462 -2.9123,-1.94708 1.2934,-4.36289 0.3708,-6.18662 -3.1856,-7.73746 -2.0643,-0.90029 -6.8463,1.4458 -9.2558,4.54093 -0.1571,1.42944 -0.7338,3.60592 -0.8716,5.81612 -0.7649,-0.0568 1.178,0.0814 -7.7431,5.06291 -3.9609,2.21165 -4.8633,2.37271 -6.677,1.19166 -2.2707,-1.47868 -4.8775,-2.0461 -6.8968,-1.50124 -3.7466,1.30656 -6.7425,6.4922 -5.2219,10.2522 0.4543,1.02343 1.5656,2.14333 2.7918,2.8143 1.9455,1.06429 3.5971,-0.80148 2.9123,1.94709 -1.1,4.41564 -0.3708,6.18656 3.1855,7.73746 2.0644,0.90028 6.8464,-1.44582 9.2559,-4.54096 0.9203,-3.43494 0.4454,-4.87966 0.5694,-5.74606 1.3648,-0.5578 3.6454,-1.68169 5.7213,-2.83586 5.792,-2.58607 7.2502,-5.19912 9.0035,-3.66658 2.2653,1.7635 4.5036,2.30754 6.8876,1.67413 5.1948,-2.2991 6.7486,-6.48744 5.2283,-10.24729 z m -5.1583,8.05621 c -2.4879,0.94147 -4.8454,0.51872 -7.1617,-1.28438 -1.8151,-1.41307 2.2446,-2.77612 -4.6921,1.27446 -8.1716,4.77173 -9.6158,5.51903 -10.4834,5.42503 -0.4708,-0.051 -0.9469,1.251 -1.2241,3.34789 -0.525,3.97391 -0.7932,4.52599 -4.4376,6.37395 -2.0999,1.0645 -2.6311,1.04052 -4.3286,-0.19584 -1.7322,-1.26162 -1.8761,-1.67468 -1.3736,-3.93873 0.309,-1.3911 1.3482,-3.58123 2.3099,-4.86685 1.7607,-2.35334 0.2684,-2.2214 -1.4472,-0.71922 -1.2432,1.08825 -2.918,1.23554 -4.7676,0.41952 -3.0512,-1.3464 -1.9121,-7.17681 1.7296,-8.85624 2.7217,-1.2551 3.9192,-1.1046 7.8718,0.98916 2.2858,1.21074 3.5598,1.58962 3.491,1.03828 -0.068,-0.55152 0.7678,-1.28764 2.2917,-2.01747 4.7807,-2.09105 6.1155,-4.73089 8.8239,-5.60275 1.1236,-0.0351 1.3294,-0.44487 1.7244,-3.43482 0.5203,-3.93607 0.8001,-4.49537 4.4331,-6.3374 2.0997,-1.06455 2.631,-1.04054 4.3286,0.19589 1.7319,1.26154 1.8761,1.67466 1.3736,3.93873 -0.3089,1.39108 -1.3481,3.5812 -2.3099,4.86686 -1.7606,2.35328 -0.2682,2.22136 1.4473,0.71921 2.3082,-2.02078 6.3057,-0.7268 6.4435,2.0857 0.081,1.64673 -0.4772,3.74596 -1.3691,5.14988 -0.1921,0.30218 -1.3951,0.94542 -2.6736,1.42929 z"
         style="fill:#befff1;fill-opacity:1;stroke:#befff1;stroke-opacity:1" />
      <path
         inkscape:export-ydpi="19.997541"
         inkscape:export-xdpi="19.997541"
         inkscape:export-filename="C:\Users\Nina\Desktop\Arbeit\Renate Homepage\B.A.R.F\bilder\icon2.png"
         sodipodi:nodetypes="csssccssccsssccccccsssscsssssssssccssssssscs"
         inkscape:connector-curvature="0"
         id="path3000-7-14-1-8"
         d="m 191.75997,581.50056 c 0.2149,-1.09893 0.048,-2.70903 -0.6728,-3.90669 -1.2553,-2.0855 -5.0992,-0.21994 -1.2688,-3.26539 3.562,-2.832 3.8524,-4.85496 1.8287,-8.16521 -1.1747,-1.92153 -6.4375,-2.74258 -10.1866,-1.58923 -0.9488,1.08064 -2.6693,2.53291 -4.0499,4.26438 -0.594,-0.48526 0.9182,0.74233 -9.2469,-0.29409 -4.513,-0.46013 -5.3446,-0.8458 -6.1529,-2.85357 -1.0119,-2.51367 -2.8218,-4.47368 -4.7884,-5.18557 -3.8184,-1.07869 -9.2469,1.45081 -10.158,5.40296 -0.2149,1.09893 0.053,2.65367 0.6727,3.90667 0.9833,1.98769 3.4063,1.40667 1.2689,3.26541 -3.4338,2.98612 -3.8524,4.85497 -1.8287,8.16522 1.1747,1.9215 6.4375,2.74258 10.1866,1.58923 2.725,-2.28476 3.1637,-3.74166 3.7625,-4.38 1.438,0.32592 3.9508,0.71342 6.3133,0.95865 6.2278,1.20371 8.9211,-0.10039 9.4783,2.16071 0.844,2.74378 2.3656,4.47329 4.6818,5.32195 5.5739,1.0962 9.2491,-1.4434 10.1602,-5.39543 z m -8.8462,3.64063 c -2.5779,-0.65571 -4.2668,-2.35434 -5.1298,-5.15983 -0.6764,-2.19862 3.431,-0.98659 -4.5746,-1.64732 -9.4308,-0.77834 -11.0423,-0.99448 -11.699,-1.56903 -0.3566,-0.31192 -1.4933,0.48155 -2.9231,2.04031 -2.7094,2.95401 -3.2457,3.25248 -7.2912,2.67574 -2.3305,-0.3323 -2.7519,-0.65666 -3.4333,-2.64316 -0.6953,-2.0269 -0.5764,-2.44794 1.1339,-4.01432 1.0509,-0.96243 3.1585,-2.1602 4.6839,-2.66165 2.7918,-0.9179 1.4941,-1.66559 -0.7732,-1.41932 -1.6425,0.17841 -3.0988,-0.6615 -4.1458,-2.39097 -1.7272,-2.85304 2.5497,-6.97587 6.4965,-6.26256 2.9494,0.53297 3.8439,1.34303 5.8809,5.32537 1.1779,2.30281 2.0041,3.3439 2.2641,2.85283 0.2601,-0.49104 1.3674,-0.61444 3.0345,-0.33816 5.1153,1.02916 7.7229,-0.36762 10.4417,0.47169 0.9405,0.61568 1.344,0.39804 3.3827,-1.82453 2.6837,-2.92588 3.2338,-3.22352 7.2663,-2.6486 2.3306,0.33232 2.752,0.65668 3.4333,2.64315 0.6953,2.02691 0.5764,2.44794 -1.1339,4.01433 -1.0509,0.96243 -3.1585,2.1602 -4.6839,2.66164 -2.7918,0.91791 -1.4941,1.6656 0.7732,1.41932 3.0499,-0.33128 5.5823,3.02151 4.082,5.40447 -0.8783,1.39518 -2.5396,2.79468 -4.0754,3.43334 -0.3305,0.13747 -1.685,-0.0258 -3.0098,-0.36272 z"
         style="fill:#befff1;fill-opacity:1;stroke:#befff1;stroke-opacity:1" />
      <path
         inkscape:export-ydpi="19.997541"
         inkscape:export-xdpi="19.997541"
         inkscape:export-filename="C:\Users\Nina\Desktop\Arbeit\Renate Homepage\B.A.R.F\bilder\icon2.png"
         sodipodi:nodetypes="csssccssccsssccccccsssscsssssssssccssssssscs"
         inkscape:connector-curvature="0"
         id="path3000-7-95-4-3"
         d="m 614.98195,542.97005 c 0.021,-1.11955 -0.423,-2.67623 -1.3409,-3.73051 -1.5985,-1.83583 -5.06,0.66888 -1.8166,-2.99546 3.0161,-3.40749 2.9507,-5.45016 0.383,-8.35871 -1.4905,-1.68834 -6.816,-1.58305 -10.3077,0.20379 -0.7468,1.22899 -2.189,2.95796 -3.248,4.90286 -0.6692,-0.37475 1.0332,0.5716 -9.1574,1.31608 -4.5244,0.33054 -5.4102,0.0951 -6.5549,-1.74177 -1.4331,-2.29977 -3.5559,-3.91571 -5.6162,-4.27529 -3.9477,-0.39924 -8.8545,3.03448 -9.0655,7.08479 -0.021,1.11955 0.5131,2.60414 1.341,3.7305 1.3134,1.78676 3.5987,0.79381 1.8166,2.99547 -2.8632,3.53703 -2.9508,5.45017 -0.3831,8.35872 1.4905,1.68833 6.816,1.58305 10.3078,-0.20379 2.2869,-2.72325 2.4659,-4.23421 2.9449,-4.96684 1.4727,0.0713 4.0146,0.0166 6.3837,-0.15218 6.3423,0.10397 8.7681,-1.64799 9.7095,0.48198 1.3078,2.55555 3.1065,3.99458 5.5348,4.42814 5.6797,0.11164 8.858,-3.02757 9.069,-7.07778 z m -8.0796,5.12146 c -2.6527,-0.1981 -4.6107,-1.57767 -5.9479,-4.19067 -1.0479,-2.04777 3.2076,-1.56739 -4.7912,-0.82792 -9.4226,0.87112 -11.0472,0.9381 -11.7937,0.48632 -0.4053,-0.24527 -1.387,0.73354 -2.5243,2.51688 -2.1554,3.37964 -2.6317,3.7667 -6.7158,3.90121 -2.3529,0.0774 -2.8241,-0.16883 -3.8401,-2.00681 -1.0368,-1.87539 -0.9928,-2.31068 0.4196,-4.15024 0.8677,-1.1303 2.7354,-2.67587 4.1504,-3.43456 2.5902,-1.38876 1.1823,-1.89973 -1.0077,-1.26351 -1.5867,0.46092 -3.1667,-0.11334 -4.4981,-1.63473 -2.1964,-2.50977 1.2996,-7.31264 5.3103,-7.29552 2.9971,0.0127 4.0187,0.65513 6.7163,4.22327 1.5599,2.06327 2.5544,2.94508 2.7252,2.41633 0.1708,-0.52875 1.2399,-0.84256 2.9296,-0.85995 5.2164,0.12524 7.5417,-1.70313 10.365,-1.34867 1.0331,0.44301 1.3927,0.15861 3.0144,-2.38422 2.1348,-3.34744 2.6249,-3.73608 6.696,-3.87013 2.3528,-0.0775 2.8241,0.16883 3.8402,2.00679 1.0366,1.87539 0.9926,2.31068 -0.4196,4.15024 -0.8678,1.1303 -2.7355,2.67586 -4.1505,3.43456 -2.5902,1.38877 -1.1822,1.89974 1.0077,1.2635 2.9461,-0.85586 6.0222,2.00624 4.9585,4.61353 -0.6227,1.52652 -2.0156,3.19323 -3.4172,4.08887 -0.3017,0.19278 -1.6639,0.26725 -3.0271,0.16544 z"
         style="fill:#befff1;fill-opacity:1;stroke:#befff1;stroke-opacity:1" />
      <path
         inkscape:export-ydpi="19.997541"
         inkscape:export-xdpi="19.997541"
         inkscape:export-filename="C:\Users\Nina\Desktop\Arbeit\Renate Homepage\B.A.R.F\bilder\icon2.png"
         sodipodi:nodetypes="csssccssccsssccccccsssscsssssssssccssssssscs"
         inkscape:connector-curvature="0"
         id="path3000-7-5-3-8-8"
         d="m 7.45081,521.94105 c 0.015,-0.81616 -0.3084,-1.95098 -0.9775,-2.71954 -1.1653,-1.33833 -3.6888,0.48761 -1.3244,-2.18369 2.1988,-2.48407 2.1512,-3.97317 0.2793,-6.0935 -1.0865,-1.23081 -4.968901,-1.15405 -7.514401,0.14855 -0.5444,0.89594 -1.5957,2.15636 -2.3677,3.57419 -0.4879,-0.2732 0.7532,0.4167 -6.6758,0.95943 -3.2982,0.24096 -3.9441,0.0694 -4.7786,-1.26976 -1.0446,-1.67652 -2.5921,-2.85455 -4.0942,-3.11669 -2.8778,-0.29103 -6.4548,2.21214 -6.6086,5.16482 -0.015,0.81615 0.374,1.89842 0.9775,2.71953 0.9574,1.30255 2.6235,0.57869 1.3243,2.18369 -2.0872,2.5785 -2.1511,3.97318 -0.2793,6.09352 1.0866,1.23079 4.9689,1.15404 7.5144,-0.14856 1.6672,-1.98526 1.7977,-3.08675 2.1469,-3.62083 1.0735,0.052 2.9266,0.012 4.6537,-0.11095 4.6235,0.0758 6.3919,-1.20137 7.0782,0.35138 0.9534,1.86298 2.2646,2.91204 4.0349,3.22811 4.140501,0.0814 6.457501,-2.2071 6.611301,-5.1597 z m -5.890001,3.73354 c -1.9339,-0.14442 -3.3613,-1.15012 -4.3361,-3.05501 -0.7638,-1.49281 2.3383,-1.14261 -3.4927,-0.60355 -6.8691,0.63505 -8.0535,0.68388 -8.5976,0.35454 -0.2955,-0.17881 -1.0111,0.53475 -1.8403,1.8348 -1.5712,2.46376 -1.9185,2.74592 -4.8958,2.84399 -1.7152,0.0565 -2.0588,-0.12308 -2.7995,-1.46298 -0.7557,-1.36715 -0.7236,-1.68448 0.3059,-3.02552 0.6326,-0.82399 1.9942,-1.9507 3.0257,-2.50379 1.8882,-1.01241 0.8618,-1.38491 -0.7347,-0.9211 -1.1566,0.33601 -2.3085,-0.0826 -3.2791,-1.19172 -1.6011,-1.82963 0.9475,-5.33091 3.8713,-5.31844 2.1849,0.009 2.9296,0.4776 4.8962,3.07876 1.1371,1.50413 1.8621,2.14697 1.9866,1.76152 0.1245,-0.38546 0.9038,-0.61424 2.1357,-0.62691 3.8027,0.0913 5.4979,-1.24157 7.5561,-0.98317 0.7531,0.32294 1.0152,0.11561 2.1975,-1.7381 1.5563,-2.44029 1.9136,-2.7236 4.881301,-2.82134 1.7153,-0.0566 2.0589,0.12309 2.7996,1.46296 0.7556,1.36716 0.7236,1.68448 -0.306,3.02552 -0.6325,0.824 -1.9941,1.95071 -3.025601,2.5038 -1.8883,1.01241 -0.8619,1.38491 0.734601,0.92109 2.1477,-0.62392 4.3902,1.46255 3.6148,3.36327 -0.454,1.11283 -1.4694,2.32786 -2.4912,2.98078 -0.2199,0.14054 -1.213,0.19483 -2.206701,0.12061 z"
         style="fill:#befff1;fill-opacity:1;stroke:#befff1;stroke-opacity:1" />
      <path
         inkscape:export-ydpi="19.997541"
         inkscape:export-xdpi="19.997541"
         inkscape:export-filename="C:\Users\Nina\Desktop\Arbeit\Renate Homepage\B.A.R.F\bilder\icon2.png"
         sodipodi:nodetypes="csssccssccsssccccccsssscsssssssssccssssssscs"
         inkscape:connector-curvature="0"
         id="path3000-7-23-8-8-3"
         d="m 103.33635,556.38962 c 0.2651,-1.35675 0.059,-3.34447 -0.8305,-4.82307 -1.5499,-2.5747 -6.2954,-0.27152 -1.5664,-4.03134 4.3974,-3.49629 4.7559,-5.9938 2.2576,-10.08051 -1.4503,-2.37224 -7.9476,-3.38592 -12.576,-1.96203 -1.1715,1.33413 -3.2956,3.12705 -5,5.26467 -0.7332,-0.59908 1.1336,0.91645 -11.4159,-0.36306 -5.5716,-0.56806 -6.5982,-1.04419 -7.5961,-3.52291 -1.2493,-3.10331 -3.4838,-5.52307 -5.9118,-6.40198 -4.714,-1.33169 -11.4158,1.79115 -12.5406,6.67033 -0.2651,1.35676 0.066,3.27614 0.8306,4.82307 1.2137,2.45392 4.2051,1.73661 1.5664,4.03136 -4.2392,3.68658 -4.756,5.9938 -2.2576,10.08053 1.4502,2.37222 7.9475,3.3859 12.5759,1.96201 3.3644,-2.8207 3.9059,-4.61936 4.6453,-5.40741 1.7753,0.40238 4.8774,0.88081 7.794,1.18351 7.6888,1.48607 11.0137,-0.12393 11.7017,2.66754 1.0421,3.38741 2.9205,5.52261 5.7799,6.57033 6.8815,1.35334 11.4187,-1.78197 12.5435,-6.66104 z m -10.9212,4.49463 c -3.1827,-0.80954 -5.2676,-2.90659 -6.3331,-6.37019 -0.835,-2.71435 4.2358,-1.218 -5.6477,-2.03372 -11.6429,-0.96092 -13.6325,-1.22776 -14.4432,-1.93706 -0.4401,-0.3851 -1.8435,0.5945 -3.6087,2.51889 -3.345,3.64692 -4.0071,4.0154 -9.0014,3.3034 -2.8772,-0.41023 -3.3975,-0.81072 -4.2388,-3.26318 -0.8583,-2.50236 -0.7115,-3.02215 1.4,-4.95595 1.2972,-1.1882 3.8994,-2.66691 5.7824,-3.28599 3.4469,-1.1332 1.8447,-2.05627 -0.9544,-1.75225 -2.0277,0.22026 -3.8258,-0.81668 -5.1183,-2.95182 -2.1323,-3.52226 3.1478,-8.61218 8.0204,-7.73155 3.6412,0.65805 4.7455,1.65805 7.2603,6.57455 1.4542,2.84295 2.4743,4.12827 2.7953,3.52202 0.321,-0.60625 1.6881,-0.75859 3.7462,-0.41748 6.3153,1.27054 9.5345,-0.45388 12.8911,0.58233 1.161,0.76008 1.6592,0.4914 4.176,-2.25255 3.3133,-3.61219 3.9924,-3.97962 8.9708,-3.26986 2.8772,0.41021 3.3974,0.81071 4.2387,3.26315 0.8583,2.50236 0.7115,3.02216 -1.3999,4.95595 -1.2974,1.18821 -3.8994,2.66692 -5.7825,3.286 -3.4469,1.1332 -1.8446,2.05628 0.9544,1.75224 3.7653,-0.409 6.8917,3.73023 5.0395,6.67217 -1.0844,1.72247 -3.1352,3.45026 -5.0312,4.23871 -0.4081,0.16972 -2.0803,-0.0318 -3.7159,-0.4478 z"
         style="fill:#befff1;fill-opacity:1;stroke:#befff1;stroke-opacity:1" />
      <path
         inkscape:export-ydpi="19.997541"
         inkscape:export-xdpi="19.997541"
         inkscape:export-filename="C:\Users\Nina\Desktop\Arbeit\Renate Homepage\B.A.R.F\bilder\icon2.png"
         sodipodi:nodetypes="csssccssccsssccccccsssscsssssssssccssssssscs"
         inkscape:connector-curvature="0"
         id="path3000-7-18-71"
         d="m 690.50875,530.57065 c -0.4969,1.29004 -0.6391,3.28338 -0.019,4.89404 1.0792,2.8047 6.1525,1.36055 0.8426,4.24209 -4.9378,2.67957 -5.7245,5.07688 -3.9738,9.53534 1.0162,2.58801 7.2389,4.71456 12.0443,4.11602 1.3852,-1.11045 3.7884,-2.50729 5.8381,-4.31646 0.6181,0.71732 -0.9573,-1.09939 11.1794,2.33988 5.3884,1.52694 6.3167,2.17411 6.8691,4.78847 0.6914,3.2731 2.4718,6.0441 4.7102,7.33126 4.4113,2.13006 11.5535,0.2184 13.5085,-4.39133 0.4968,-1.29005 0.5043,-3.23776 0.019,-4.89403 -0.7692,-2.62738 -3.8397,-2.44044 -0.8426,-4.24212 4.815,-2.8944 5.7245,-5.07688 3.9738,-9.53534 -1.0163,-2.588 -7.239,-4.71456 -12.0442,-4.11598 -3.8031,2.1936 -4.6488,3.87091 -5.5139,4.51859 -1.6783,-0.70451 -4.6503,-1.71438 -7.4701,-2.51895 -7.3139,-2.79863 -10.8678,-1.79044 -11.0606,-4.65896 -0.4381,-3.51691 -1.9171,-5.94584 -4.5512,-7.47418 -6.542,-2.52776 -11.5547,-0.22794 -13.5096,4.38168 z m 11.5358,-2.52988 c 2.9937,1.34991 4.6828,3.77714 5.1307,7.37314 0.351,2.8181 -4.383,0.46394 5.2086,2.9835 11.2992,2.96812 13.2123,3.5764 13.8875,4.41571 0.3666,0.45566 1.9189,-0.26536 3.9914,-1.854 3.9275,-3.01066 4.6436,-3.25856 9.4383,-1.69014 2.7623,0.90363 3.2051,1.38839 3.6077,3.94967 0.4108,2.61339 0.176,3.0998 -2.2392,4.63759 -1.484,0.94484 -4.3034,1.94922 -6.2652,2.23193 -3.5914,0.51744 -2.1737,1.70472 0.6356,1.89136 2.0352,0.1352 3.6259,1.46862 4.528,3.79576 1.4882,3.83902 -4.5955,7.93474 -9.2412,6.22136 -3.4717,-1.28036 -4.3856,-2.45692 -6.0085,-7.7354 -0.9384,-3.05228 -1.7198,-4.49522 -2.1412,-3.95391 -0.4214,0.54128 -1.7941,0.45394 -3.7617,-0.23937 -5.9988,-2.34791 -9.4684,-1.20867 -12.5941,-2.812 -1.0114,-0.95016 -1.5487,-0.77206 -4.5038,1.49314 -3.8902,2.98198 -4.6228,3.22591 -9.4023,1.66244 -2.7623,-0.90362 -3.205,-1.38836 -3.6077,-3.94962 -0.4108,-2.61339 -0.1759,-3.0998 2.2392,-4.63759 1.484,-0.94485 4.3034,-1.94925 6.2653,-2.23193 3.5912,-0.51748 2.1737,-1.70472 -0.6356,-1.89135 -3.7792,-0.25107 -6.1393,-4.87031 -3.8044,-7.4459 1.3671,-1.508 3.6867,-2.85342 5.6908,-3.30066 0.4315,-0.0963 2.0432,0.39252 3.5818,1.08625 z"
         style="fill:#befff1;fill-opacity:1;stroke:#befff1;stroke-opacity:1" />
      <path
         inkscape:export-ydpi="19.997541"
         inkscape:export-xdpi="19.997541"
         inkscape:export-filename="C:\Users\Nina\Desktop\Arbeit\Renate Homepage\B.A.R.F\bilder\icon2.png"
         sodipodi:nodetypes="csssccssccsssccccccsssscsssssssssccssssssscs"
         inkscape:connector-curvature="0"
         id="path3000-7-14-1-0"
         d="m 811.11717,543.0218 c -0.2149,1.09893 -0.048,2.70903 0.6728,3.90669 1.2553,2.0855 5.0992,0.21994 1.2688,3.26539 -3.562,2.832 -3.8524,4.85496 -1.8287,8.16521 1.1747,1.92153 6.4375,2.74258 10.1866,1.58923 0.9488,-1.08064 2.6693,-2.53291 4.0499,-4.26438 0.594,0.48526 -0.9182,-0.74233 9.2469,0.29409 4.513,0.46013 5.3446,0.8458 6.1529,2.85357 1.0119,2.51367 2.8218,4.47368 4.7884,5.18557 3.8184,1.07869 9.2469,-1.45081 10.158,-5.40296 0.2149,-1.09893 -0.053,-2.65367 -0.6727,-3.90667 -0.9833,-1.98769 -3.4063,-1.40667 -1.2689,-3.26541 3.4338,-2.98612 3.8524,-4.85497 1.8287,-8.16522 -1.1747,-1.9215 -6.4375,-2.74258 -10.1866,-1.58923 -2.725,2.28476 -3.1637,3.74166 -3.7625,4.38 -1.438,-0.32592 -3.9508,-0.71342 -6.3133,-0.95865 -6.2278,-1.20371 -8.9211,0.10039 -9.4783,-2.16071 -0.844,-2.74378 -2.3656,-4.47329 -4.6818,-5.32195 -5.5739,-1.0962 -9.2491,1.4434 -10.1602,5.39543 z m 8.8462,-3.64063 c 2.5779,0.65571 4.2668,2.35434 5.1298,5.15983 0.6764,2.19862 -3.431,0.98659 4.5746,1.64732 9.4308,0.77834 11.0423,0.99448 11.699,1.56903 0.3566,0.31192 1.4933,-0.48155 2.9231,-2.04031 2.7094,-2.95401 3.2457,-3.25248 7.2912,-2.67574 2.3305,0.3323 2.7519,0.65666 3.4333,2.64316 0.6953,2.0269 0.5764,2.44794 -1.1339,4.01432 -1.0509,0.96243 -3.1585,2.1602 -4.6839,2.66165 -2.7918,0.9179 -1.4941,1.66559 0.7732,1.41932 1.6425,-0.17841 3.0988,0.6615 4.1458,2.39097 1.7272,2.85304 -2.5497,6.97587 -6.4965,6.26256 -2.9494,-0.53297 -3.8439,-1.34303 -5.8809,-5.32537 -1.1779,-2.30281 -2.0041,-3.3439 -2.2641,-2.85283 -0.2601,0.49104 -1.3674,0.61444 -3.0345,0.33816 -5.1153,-1.02916 -7.7229,0.36762 -10.4417,-0.47169 -0.9405,-0.61568 -1.344,-0.39804 -3.3827,1.82453 -2.6837,2.92588 -3.2338,3.22352 -7.2663,2.6486 -2.3306,-0.33232 -2.752,-0.65668 -3.4333,-2.64315 -0.6953,-2.02691 -0.5764,-2.44794 1.1339,-4.01433 1.0509,-0.96243 3.1585,-2.1602 4.6839,-2.66164 2.7918,-0.91791 1.4941,-1.6656 -0.7732,-1.41932 -3.0499,0.33128 -5.5823,-3.02151 -4.082,-5.40447 0.8783,-1.39518 2.5396,-2.79468 4.0754,-3.43334 0.3305,-0.13747 1.685,0.0258 3.0098,0.36272 z"
         style="fill:#befff1;fill-opacity:1;stroke:#befff1;stroke-opacity:1" />
      <path
         inkscape:export-ydpi="19.997541"
         inkscape:export-xdpi="19.997541"
         inkscape:export-filename="C:\Users\Nina\Desktop\Arbeit\Renate Homepage\B.A.R.F\bilder\icon2.png"
         sodipodi:nodetypes="csssccssccsssccccccsssscsssssssssccssssssscs"
         inkscape:connector-curvature="0"
         id="path3000-7-23-8-8-34"
         d="m 917.29641,559.96741 c -0.2651,1.35675 -0.059,3.34447 0.8305,4.82307 1.5499,2.5747 6.2954,0.27152 1.5664,4.03134 -4.3974,3.49629 -4.7559,5.9938 -2.2576,10.08051 1.4503,2.37224 7.9476,3.38592 12.576,1.96203 1.1715,-1.33413 3.2956,-3.12705 5,-5.26467 0.7332,0.59908 -1.1336,-0.91645 11.4159,0.36306 5.5716,0.56806 6.5982,1.04419 7.5961,3.52291 1.2493,3.10331 3.4838,5.52307 5.9118,6.40198 4.714,1.33169 11.4158,-1.79115 12.5406,-6.67033 0.2651,-1.35676 -0.066,-3.27614 -0.8306,-4.82307 -1.2137,-2.45392 -4.2051,-1.73661 -1.5664,-4.03136 4.2392,-3.68658 4.756,-5.9938 2.2576,-10.08053 -1.4502,-2.37222 -7.9475,-3.3859 -12.5759,-1.96201 -3.3644,2.8207 -3.9059,4.61936 -4.6453,5.40741 -1.7753,-0.40238 -4.8774,-0.88081 -7.794,-1.18351 -7.6888,-1.48607 -11.0137,0.12393 -11.7017,-2.66754 -1.0421,-3.38741 -2.9205,-5.52261 -5.7799,-6.57033 -6.8815,-1.35334 -11.4187,1.78197 -12.5435,6.66104 z m 10.9212,-4.49463 c 3.1827,0.80954 5.2676,2.90659 6.3331,6.37019 0.835,2.71435 -4.2358,1.218 5.6477,2.03372 11.6429,0.96092 13.6325,1.22776 14.4432,1.93706 0.4401,0.3851 1.8435,-0.5945 3.6087,-2.51889 3.345,-3.64692 4.0071,-4.0154 9.0014,-3.3034 2.8772,0.41023 3.3975,0.81072 4.2388,3.26318 0.8583,2.50236 0.7115,3.02215 -1.4,4.95595 -1.2972,1.1882 -3.8994,2.66691 -5.7824,3.28599 -3.4469,1.1332 -1.8447,2.05627 0.9544,1.75225 2.0277,-0.22026 3.8258,0.81668 5.1183,2.95182 2.1323,3.52226 -3.1478,8.61218 -8.0204,7.73155 -3.6412,-0.65805 -4.7455,-1.65805 -7.2603,-6.57455 -1.4542,-2.84295 -2.4743,-4.12827 -2.7953,-3.52202 -0.321,0.60625 -1.6881,0.75859 -3.7462,0.41748 -6.3153,-1.27054 -9.5345,0.45388 -12.8911,-0.58233 -1.161,-0.76008 -1.6592,-0.4914 -4.176,2.25255 -3.3133,3.61219 -3.9924,3.97962 -8.9708,3.26986 -2.8772,-0.41021 -3.3974,-0.81071 -4.2387,-3.26315 -0.8583,-2.50236 -0.7115,-3.02216 1.3999,-4.95595 1.2974,-1.18821 3.8994,-2.66692 5.7825,-3.286 3.4469,-1.1332 1.8446,-2.05628 -0.9544,-1.75224 -3.7653,0.409 -6.8917,-3.73023 -5.0395,-6.67217 1.0844,-1.72247 3.1352,-3.45026 5.0312,-4.23871 0.4081,-0.16972 2.0803,0.0318 3.7159,0.4478 z"
         style="fill:#befff1;fill-opacity:1;stroke:#befff1;stroke-opacity:1" />
    </g>
  </g>
</svg>
